<?xml version="1.0" encoding="UTF-8"?>
<svg version="1.1" xmlns="http://www.w3.org/2000/svg" width="568" height="567">
<path d="M0 0 C187.44 0 374.88 0 568 0 C568 187.11 568 374.22 568 567 C380.56 567 193.12 567 0 567 C0 379.89 0 192.78 0 0 Z " fill="#FEFEFE" transform="translate(0,0)"/>
<path d="M0 0 C48.10426654 18.38922594 86.89807002 53.84162708 108.1875 100.875 C121.48164074 131.23880441 127.88463516 165.96612323 123 199 C122.33701212 199.00331015 121.67402424 199.00662029 120.99094582 199.01003075 C104.87558146 199.09117227 88.76032055 199.18323536 72.6450901 199.28752708 C64.85195513 199.33769661 57.05883091 199.38413891 49.265625 199.421875 C42.47483501 199.45476659 35.68412739 199.4945819 28.89342821 199.54279006 C25.29620033 199.56808341 21.69902729 199.58985615 18.10173416 199.60334396 C14.09065111 199.61851276 10.07983159 199.64913586 6.06884766 199.68115234 C4.86979294 199.68331253 3.67073822 199.68547272 2.43534851 199.68769836 C1.34717331 199.69886185 0.25899811 199.71002533 -0.8621521 199.7215271 C-2.28632226 199.72982324 -2.28632226 199.72982324 -3.73926353 199.73828697 C-6.2000675 199.78600019 -6.2000675 199.78600019 -8 202 C-8.17510386 204.65291757 -8.23155483 207.19986174 -8.1953125 209.8515625 C-8.19106766 211.01261002 -8.19106766 211.01261002 -8.18673706 212.19711304 C-8.17552754 214.67323157 -8.15042203 217.1489905 -8.125 219.625 C-8.11497118 221.30207812 -8.10584516 222.97916189 -8.09765625 224.65625 C-8.07558574 228.77097223 -8.04105102 232.88542511 -8 237 C-5.36 237.66 -2.72 238.32 0 239 C0 241.64 0 244.28 0 247 C-1.134375 247.309375 -2.26875 247.61875 -3.4375 247.9375 C-6.78775099 248.62924531 -6.78775099 248.62924531 -8 250 C-8.11332093 252.57019485 -8.16417485 255.11251477 -8.16796875 257.68359375 C-8.17129715 258.45429703 -8.17462555 259.22500031 -8.17805481 260.01905823 C-8.1831271 261.65242921 -8.18546304 263.2858106 -8.18530273 264.91918945 C-8.1874878 267.42351299 -8.20563595 269.92739521 -8.22460938 272.43164062 C-8.22754347 274.01562349 -8.22952816 275.59960845 -8.23046875 277.18359375 C-8.24124702 278.31177773 -8.24124702 278.31177773 -8.25224304 279.4627533 C-8.38144465 283.6910445 -8.38144465 283.6910445 -6 287 C-4.01178687 287.39764263 -2.01055661 287.73775349 0 288 C0 290.64 0 293.28 0 296 C-1.134375 296.144375 -2.26875 296.28875 -3.4375 296.4375 C-6.80777201 296.61171478 -6.80777201 296.61171478 -8 298 C-8.10095564 300.65456193 -8.13970998 303.28255176 -8.1328125 305.9375 C-8.13424759 307.13040649 -8.13424759 307.13040649 -8.13571167 308.34741211 C-8.13639343 310.0320646 -8.13453943 311.71671971 -8.13037109 313.40136719 C-8.12502275 315.98899197 -8.13031619 318.57644316 -8.13671875 321.1640625 C-8.13605797 322.79687539 -8.1347768 324.42968816 -8.1328125 326.0625 C-8.13584885 327.23123657 -8.13584885 327.23123657 -8.13894653 328.42358398 C-8.4583958 332.007942 -8.4583958 332.007942 -7 335 C-4.94521547 335.12380838 -2.8862104 335.17798203 -0.82788086 335.20532227 C-0.18399918 335.21522186 0.45988251 335.22512146 1.12327576 335.23532104 C3.26053131 335.26701528 5.39780913 335.29172449 7.53515625 335.31640625 C9.01346936 335.33696896 10.49177649 335.35796524 11.97007751 335.37937927 C15.86792171 335.43467059 19.76581958 335.48404857 23.66375732 335.53222656 C27.63851723 335.58239019 31.61319884 335.63810301 35.58789062 335.69335938 C43.39186274 335.80102726 51.19590015 335.90194032 59 336 C59 344.58 59 353.16 59 362 C54.38 362 49.76 362 45 362 C45 361.67 45 361.34 45 361 C49.29 361 53.58 361 58 361 C58 353.08 58 345.16 58 337 C53.70488098 336.97885666 49.41925453 337.00681724 45.125 337.0625 C43.92101562 337.05154297 42.71703125 337.04058594 41.4765625 337.02929688 C32.48975078 337.20024166 27.85107934 339.37113252 21 345 C-6.89002245 363.2328975 -40.61507037 371.23664576 -73.625 371.125 C-74.80707031 371.12886719 -75.98914063 371.13273437 -77.20703125 371.13671875 C-78.88732422 371.13478516 -78.88732422 371.13478516 -80.6015625 371.1328125 C-82.12257568 371.13112061 -82.12257568 371.13112061 -83.67431641 371.12939453 C-86 371 -86 371 -87 370 C-86.94666837 367.68007392 -86.81645385 365.36187737 -86.65625 363.046875 C-86.58319641 361.97515045 -86.58319641 361.97515045 -86.50866699 360.8817749 C-85.88182285 351.91624763 -85.09284378 342.96304088 -84.30224609 334.01074219 C-82.39526138 312.32884651 -81.83586581 290.76551576 -81.86962891 269.00708008 C-81.87536206 265.28718161 -81.87200808 261.56735478 -81.86605644 257.84745884 C-81.86241167 254.93118263 -81.86360661 252.01492292 -81.86618423 249.09864616 C-81.86715427 247.07329638 -81.86417394 245.04794588 -81.86105347 243.02259827 C-81.87881902 235.94472792 -82.13793017 228.95785813 -82.76951599 221.90716553 C-83.17147108 216.83718266 -83.19060421 211.77102967 -83.1875 206.6875 C-83.1884668 204.96213013 -83.1884668 204.96213013 -83.18945312 203.2019043 C-83.12862769 192.8760958 -82.44992998 182.6250602 -81.71606445 172.32885742 C-80.70410474 157.55649074 -80.80667762 142.79957194 -81 128 C-80.34 128.33 -79.68 128.66 -79 129 C-78.68758629 131.54941373 -78.48696579 134.00361513 -78.375 136.5625 C-78.33632812 137.27341797 -78.29765625 137.98433594 -78.2578125 138.71679688 C-78.16328217 140.47742425 -78.08054183 142.23867728 -78 144 C-77.64921387 143.57404541 -77.29842773 143.14809082 -76.93701172 142.70922852 C-75.86866509 141.41195047 -74.80021378 140.11475864 -73.73168945 138.81762695 C-72.48207728 137.29985343 -71.23323039 135.78144956 -69.98510742 134.26245117 C-66.69373445 130.25898449 -63.39076032 126.26647779 -60.05859375 122.296875 C-59.43033691 121.54462646 -58.80208008 120.79237793 -58.15478516 120.01733398 C-56.95213175 118.57800681 -55.74496522 117.14243527 -54.53271484 115.71118164 C-51.43022119 111.98664663 -48.97112679 108.47856723 -47 104 C-46.34 104 -45.68 104 -45 104 C-44.72978027 103.41895508 -44.45956055 102.83791016 -44.18115234 102.23925781 C-42.99646036 99.99328945 -41.67918427 98.15776949 -40.1015625 96.171875 C-39.53953125 95.45386719 -38.9775 94.73585938 -38.3984375 93.99609375 C-37.22674327 92.51211978 -36.05231067 91.03030337 -34.875 89.55078125 C-29.00636748 82.03410809 -25.58195214 74.46222108 -22.625 65.4375 C-22.32464844 64.52911377 -22.02429688 63.62072754 -21.71484375 62.68481445 C-19.5729075 56.0754273 -17.71946792 49.41793916 -16 42.6875 C-15.63865967 41.27585571 -15.63865967 41.27585571 -15.27001953 39.83569336 C-15.02622559 38.88315674 -14.78243164 37.93062012 -14.53125 36.94921875 C-12.90736378 30.61754258 -11.24509606 24.29942998 -9.5 18 C-9.23960937 17.00315186 -8.97921875 16.00630371 -8.7109375 14.97924805 C-6.91309393 8.60224889 -4.66920787 4.72167088 0 0 Z " fill="#EAF1FA" transform="translate(326,53)"/>
<path d="M0 0 C1.20301254 -0.00845947 2.40602509 -0.01691895 3.64549255 -0.02563477 C4.98050062 -0.01980172 6.31550735 -0.0136572 7.6505127 -0.00723267 C9.05494088 -0.01129727 10.45936587 -0.01663853 11.86378479 -0.02316284 C15.67988211 -0.03685563 19.4957365 -0.03152982 23.31183815 -0.02202559 C27.30229988 -0.0144391 31.29274059 -0.02147178 35.28320312 -0.02618408 C41.98494203 -0.03164459 48.6865818 -0.02444231 55.38830566 -0.01016235 C63.14039348 0.00616478 70.89224461 0.00087647 78.64432669 -0.01564157 C85.29577968 -0.02924806 91.94716134 -0.03118022 98.59862375 -0.02332556 C102.57314847 -0.01864441 106.54756187 -0.01803625 110.52207947 -0.02793503 C114.25841306 -0.0365903 117.99444099 -0.03060947 121.7307415 -0.01325226 C123.10337758 -0.00927966 124.47603931 -0.01043467 125.84866524 -0.01704025 C127.7194948 -0.02521446 129.59038047 -0.0131553 131.46118164 0 C133.03298565 0.00169662 133.03298565 0.00169662 134.63654327 0.00342751 C137.23059082 0.38095093 137.23059082 0.38095093 139.06790924 1.68465233 C141.04781124 4.57323768 140.6357094 7.8808695 140.59387207 11.25985718 C140.59461983 12.41166725 140.59461983 12.41166725 140.59538269 13.58674622 C140.59304415 15.20819693 140.58332851 16.82965141 140.56677246 18.45101929 C140.54314492 20.93775736 140.54621705 23.42342576 140.55285645 25.9102478 C140.54728076 27.48512401 140.54017157 29.05999569 140.53137207 30.63485718 C140.53228348 31.38070572 140.53319489 32.12655426 140.53413391 32.89500427 C140.46163373 38.14990802 140.46163373 38.14990802 138.23059082 40.38095093 C134.60559082 40.50595093 134.60559082 40.50595093 131.23059082 40.38095093 C131.23059082 43.02095093 131.23059082 45.66095093 131.23059082 48.38095093 C132.15871582 48.31907593 133.08684082 48.25720093 134.04309082 48.19345093 C137.23059082 48.38095093 137.23059082 48.38095093 138.90490723 49.4024353 C140.95944122 52.46872324 140.6582769 55.65724787 140.62902832 59.22470093 C140.63333359 60.37295349 140.63333359 60.37295349 140.63772583 61.54440308 C140.63976582 63.1616388 140.63424045 64.77889923 140.6217041 66.39608765 C140.6056484 68.87207184 140.62155379 71.34642377 140.64074707 73.82235718 C140.63876463 75.39397537 140.63492092 76.96559254 140.62902832 78.53720093 C140.63510101 79.27788818 140.64117371 80.01857544 140.64743042 80.78170776 C140.5778783 85.86264195 140.5778783 85.86264195 138.90490723 88.35946655 C136.37648258 89.90203417 134.11750923 89.57341215 131.23059082 89.38095093 C131.23059082 92.02095093 131.23059082 94.66095093 131.23059082 97.38095093 C132.34434082 97.33970093 133.45809082 97.29845093 134.60559082 97.25595093 C138.23059082 97.38095093 138.23059082 97.38095093 140.23059082 99.38095093 C140.43032815 102.08230416 140.51040655 104.67892304 140.49621582 107.38095093 C140.49812927 108.1724353 140.50004272 108.96391968 140.50201416 109.77938843 C140.503376 111.45387083 140.49967964 113.12836378 140.49133301 114.80282593 C140.48063322 117.37077474 140.49122807 119.93802396 140.50402832 122.50595093 C140.50270673 124.13095248 140.50014433 125.75595359 140.49621582 127.38095093 C140.50026428 128.1518103 140.50431274 128.92266968 140.50848389 129.71688843 C140.46051214 135.15102961 140.46051214 135.15102961 138.23059082 137.38095093 C135.48446655 137.62145996 135.48446655 137.62145996 131.94494629 137.60800171 C131.30091858 137.60829376 130.65689087 137.60858582 129.99334717 137.60888672 C127.86135455 137.60749166 125.72971 137.59192267 123.59777832 137.57626343 C122.12090241 137.57253391 120.64402404 137.56968665 119.16714478 137.56768799 C115.27741684 137.56004666 111.38783794 137.540394 107.49816895 137.51828003 C103.5300905 137.49783228 99.561988 137.48868857 95.59387207 137.47860718 C87.8060358 137.45714847 80.01835317 137.4219624 72.23059082 137.38095093 C72.23059082 145.96095093 72.23059082 154.54095093 72.23059082 163.38095093 C77.07725193 163.30193267 77.07725193 163.30193267 81.92346191 163.20077515 C83.69346357 163.18613923 85.46331537 163.28166579 87.23059082 163.38095093 C89.23059082 165.38095093 89.23059082 165.38095093 89.35559082 168.00595093 C89.31434082 168.78970093 89.27309082 169.57345093 89.23059082 170.38095093 C89.92328064 170.37206848 90.61597046 170.36318604 91.32965088 170.35403442 C98.53189858 170.2656171 105.73399239 170.2052396 112.93664551 170.16122437 C115.62563548 170.14335192 118.31424908 170.11550618 121.00305176 170.07919312 C124.86546643 170.03073478 128.7273029 170.00799467 132.58996582 169.99032593 C133.79425232 169.96968079 134.99853882 169.94903564 136.23931885 169.92776489 C137.36017883 169.92746277 138.48103882 169.92716064 139.63586426 169.92684937 C140.6218158 169.91796692 141.60776733 169.90908447 142.62359619 169.89993286 C145.99560006 170.52210322 147.19468451 171.66276128 149.23059082 174.38095093 C149.16809082 178.00595093 149.16809082 178.00595093 148.23059082 181.38095093 C144.84389542 183.63874786 143.71368231 183.62581875 139.74938965 183.60800171 C138.62845413 183.60785065 137.50751862 183.60769958 136.35261536 183.60754395 C135.14316757 183.59722137 133.93371979 183.5868988 132.68762207 183.57626343 C130.82952156 183.57201859 130.82952156 183.57201859 128.93388367 183.56768799 C125.64420995 183.55838279 122.35473219 183.54041884 119.06512451 183.51828003 C115.70689288 183.49780363 112.34863254 183.48868245 108.99035645 183.47860718 C102.40369109 183.45653364 95.81715699 183.42304615 89.23059082 183.38095093 C89.27184082 184.16470093 89.31309082 184.94845093 89.35559082 185.75595093 C89.23059082 188.38095093 89.23059082 188.38095093 87.23059082 190.38095093 C85.37109375 190.63491821 85.37109375 190.63491821 83.0880127 190.63973999 C82.23372681 190.64604431 81.37944092 190.65234863 80.49926758 190.65884399 C79.57529175 190.65479553 78.65131592 190.65074707 77.69934082 190.64657593 C76.75248413 190.64848938 75.80562744 190.65040283 74.83007812 190.65237427 C72.82604711 190.65373666 70.82200728 190.65003649 68.81799316 190.64169312 C65.74308529 190.6309944 62.66876168 190.64158665 59.59387207 190.65438843 C57.64986036 190.65306684 55.70584901 190.65050447 53.76184082 190.64657593 C52.83786499 190.65062439 51.91388916 190.65467285 50.96191406 190.65884399 C49.68048523 190.64938751 49.68048523 190.64938751 48.37316895 190.63973999 C47.6197522 190.6381488 46.86633545 190.63655762 46.09008789 190.63491821 C44.23059082 190.38095093 44.23059082 190.38095093 42.23059082 188.38095093 C42.10559082 185.75595093 42.10559082 185.75595093 42.23059082 183.38095093 C41.52537292 183.39205399 40.82015503 183.40315704 40.09356689 183.41459656 C33.44323862 183.51483679 26.79312153 183.59093447 20.1422081 183.64001179 C16.72293589 183.66609184 13.30428854 183.70145743 9.88537598 183.75814819 C5.95364904 183.8229332 2.02217393 183.84714483 -1.91003418 183.86923218 C-3.13619446 183.8950386 -4.36235474 183.92084503 -5.62567139 183.94743347 C-7.33699249 183.94799995 -7.33699249 183.94799995 -9.08288574 183.94857788 C-10.08660217 183.95968094 -11.0903186 183.970784 -12.12445068 183.98222351 C-14.76940918 183.38095093 -14.76940918 183.38095093 -17.12872314 181.00953674 C-18.76940918 178.38095093 -18.76940918 178.38095093 -18.70690918 175.75595093 C-17.67810833 173.14965544 -16.98086097 172.07730043 -14.76940918 170.38095093 C-12.2447052 170.02018738 -12.2447052 170.02018738 -9.19641113 170.04037476 C-7.48497673 170.04071465 -7.48497673 170.04071465 -5.7389679 170.0410614 C-4.50764633 170.05654526 -3.27632477 170.07202911 -2.00769043 170.08798218 C-0.11629585 170.09434944 -0.11629585 170.09434944 1.81330872 170.10084534 C5.16234025 170.11480466 8.5107584 170.14174988 11.85961914 170.17495728 C15.27814435 170.20566988 18.69673297 170.21935317 22.11535645 170.23446655 C28.82060431 170.2675787 35.52556215 170.31781075 42.23059082 170.38095093 C42.18934082 169.59720093 42.14809082 168.81345093 42.10559082 168.00595093 C42.23059082 165.38095093 42.23059082 165.38095093 44.23059082 163.38095093 C46.82010527 163.23547259 49.27244473 163.19446041 51.85559082 163.25595093 C55.50621582 163.31782593 55.50621582 163.31782593 59.23059082 163.38095093 C59.23059082 154.80095093 59.23059082 146.22095093 59.23059082 137.38095093 C57.24172852 137.39142456 55.25286621 137.40189819 53.20373535 137.41268921 C46.64191005 137.44490355 40.08010342 137.46790416 33.5182209 137.48457527 C29.53867309 137.49502479 25.55921061 137.50920515 21.57971191 137.53182983 C17.74125196 137.55351678 13.90287423 137.56551075 10.06435776 137.57070541 C8.59788595 137.57440866 7.13141877 137.58163992 5.66498184 137.59241104 C3.61529976 137.60687112 1.56596 137.60893122 -0.48376465 137.60800171 C-1.65180634 137.61244293 -2.81984802 137.61688416 -4.02328491 137.62145996 C-6.76940918 137.38095093 -6.76940918 137.38095093 -8.76940918 135.38095093 C-8.96914651 132.6795977 -9.04922491 130.08297881 -9.03503418 127.38095093 C-9.03694763 126.58946655 -9.03886108 125.79798218 -9.04083252 124.98251343 C-9.04219436 123.30803103 -9.038498 121.63353808 -9.03015137 119.95907593 C-9.01945158 117.39112712 -9.03004643 114.8238779 -9.04284668 112.25595093 C-9.04152508 110.63094938 -9.03896269 109.00594827 -9.03503418 107.38095093 C-9.03908264 106.61009155 -9.0431311 105.83923218 -9.04730225 105.04501343 C-8.9993305 99.61087225 -8.9993305 99.61087225 -6.76940918 97.38095093 C-3.14440918 97.25595093 -3.14440918 97.25595093 0.23059082 97.38095093 C0.23059082 94.74095093 0.23059082 92.10095093 0.23059082 89.38095093 C-0.69753418 89.44282593 -1.62565918 89.50470093 -2.58190918 89.56845093 C-5.76940918 89.38095093 -5.76940918 89.38095093 -7.44372559 88.35946655 C-9.49825958 85.29317862 -9.19709525 82.10465399 -9.16784668 78.53720093 C-9.17215195 77.38894836 -9.17215195 77.38894836 -9.17654419 76.21749878 C-9.17858418 74.60026306 -9.17305881 72.98300263 -9.16052246 71.36581421 C-9.14446676 68.88983001 -9.16037215 66.41547808 -9.17956543 63.93954468 C-9.17758298 62.36792649 -9.17373928 60.79630932 -9.16784668 59.22470093 C-9.17695572 58.11367004 -9.17695572 58.11367004 -9.18624878 56.98019409 C-9.11669666 51.8992599 -9.11669666 51.8992599 -7.44372559 49.4024353 C-4.91530094 47.85986769 -2.65632759 48.1884897 0.23059082 48.38095093 C0.23059082 45.74095093 0.23059082 43.10095093 0.23059082 40.38095093 C-0.69753418 40.42220093 -1.62565918 40.46345093 -2.58190918 40.50595093 C-5.76940918 40.38095093 -5.76940918 40.38095093 -8.76940918 38.38095093 C-9.07381719 35.72073124 -9.18952205 33.29702764 -9.16784668 30.63485718 C-9.17215195 29.48448219 -9.17215195 29.48448219 -9.17654419 28.31086731 C-9.17858704 26.68765526 -9.17304168 25.06441872 -9.16052246 23.44125366 C-9.14449271 20.95639898 -9.16035113 18.47317621 -9.17956543 15.9883728 C-9.1775826 14.41219733 -9.17373812 12.83602288 -9.16784668 11.25985718 C-9.17391937 10.51603287 -9.17999207 9.77220856 -9.18624878 9.00584412 C-9.11650239 3.88691224 -9.11650239 3.88691224 -7.60573578 1.68465233 C-5.01735962 -0.1529672 -3.16029281 0.00341124 0 0 Z " fill="#BBCCE1" transform="translate(325.7694091796875,251.61904907226563)"/>
<path d="M0 0 C25.08 0 50.16 0 76 0 C78.30442441 25.34866847 78.30442441 25.34866847 78.265625 37.390625 C78.26792197 38.74524559 78.27088174 40.09986518 78.27444458 41.45448303 C78.28032802 44.99303697 78.27220984 48.53139245 78.25835419 52.06991959 C78.24986711 54.28467901 78.2440195 56.49943402 78.23858643 58.71420288 C78.1797994 79.87043612 77.93987928 100.91647175 76 122 C75.90763062 123.02365662 75.81526123 124.04731323 75.72009277 125.10198975 C72.55345294 160.16607302 68.75093651 195.14458676 64.36676025 230.07672119 C63.9625023 233.29887707 63.55999262 236.52124867 63.15771484 239.74365234 C62.43950015 245.49589653 61.72016085 251.24799916 61 257 C59.68 257.33 58.36 257.66 57 258 C57 258.66 57 259.32 57 260 C58.11955078 260.16435547 58.11955078 260.16435547 59.26171875 260.33203125 C62.13918722 261.03395295 63.49963052 261.89278865 65.8125 263.6875 C70.75151075 267.16744815 76.00634087 269.05569703 81.67895508 270.99487305 C86.90466476 272.80932951 86.90466476 272.80932951 88 275 C88.13415472 277.6723621 88.04318541 280.32250488 88 283 C84.10504945 284.94747527 79.28311038 284.22866446 75 284.25 C73.49373047 284.2809375 73.49373047 284.2809375 71.95703125 284.3125 C65.08908128 284.3480392 59.46379707 283.23364002 53 281 C51.67036118 280.65222204 50.33802313 280.31397929 49 280 C48.67 281.32 48.34 282.64 48 284 C45.70839681 284.02692484 43.41670454 284.04636124 41.125 284.0625 C39.84882813 284.07410156 38.57265625 284.08570313 37.2578125 284.09765625 C34 284 34 284 32 283 C31.69340446 273.84755529 31.50590997 265.65203245 35 257 C34.01 256.67 33.02 256.34 32 256 C32.23994429 249.88773504 32.48426488 243.77566003 32.73176575 237.66369629 C32.89382764 233.65478759 33.05366269 229.64579905 33.21142578 225.63671875 C34.94098721 181.74714203 34.94098721 181.74714203 36.30249023 161.4921875 C37.84797051 138.11375763 38.23611094 114.71766153 38.53222656 91.29760742 C38.58349694 87.30058539 38.63861783 83.30361636 38.69335938 79.30664062 C38.79921949 71.53780593 38.90100661 63.76892557 39 56 C36.63059142 56.90271771 36.63059142 56.90271771 35.80175781 60.1472168 C35.34419157 61.57867796 34.89538102 63.01295362 34.453125 64.44921875 C34.08142181 65.62512321 34.08142181 65.62512321 33.70220947 66.82478333 C32.87703957 69.44331931 32.06334848 72.06527014 31.25 74.6875 C30.67556336 76.5209691 30.10068616 78.35430022 29.52539062 80.1875 C21.36576505 106.25437315 13.37758993 132.38065155 5.70501709 158.59521484 C4.6026151 162.35546403 3.49416758 166.11392822 2.38626099 169.87255859 C1.1045563 174.22094076 -0.1758441 178.56970666 -1.45629883 182.91845703 C-2.10834921 185.13241064 -2.76069109 187.34627842 -3.41333008 189.56005859 C-10.88590449 214.85840526 -10.88590449 214.85840526 -17.9765625 240.265625 C-18.255 241.27625 -18.5334375 242.286875 -18.8203125 243.328125 C-19.37733153 245.35069895 -19.92071365 247.37705959 -20.453125 249.40625 C-20.86691406 250.88351562 -20.86691406 250.88351562 -21.2890625 252.390625 C-21.52318848 253.25719727 -21.75731445 254.12376953 -21.99853516 255.01660156 C-23 257 -23 257 -25.10693359 257.78808594 C-25.73164551 257.85801758 -26.35635742 257.92794922 -27 258 C-26.855625 258.72703125 -26.71125 259.4540625 -26.5625 260.203125 C-25.23195174 267.4102614 -24.18782364 274.66652521 -25 282 C-27.59668928 284.59668928 -28.69387212 284.25722357 -32.3046875 284.265625 C-33.89216797 284.26949219 -33.89216797 284.26949219 -35.51171875 284.2734375 C-36.62160156 284.26570313 -37.73148438 284.25796875 -38.875 284.25 C-39.97714844 284.25773437 -41.07929687 284.26546875 -42.21484375 284.2734375 C-43.80619141 284.26957031 -43.80619141 284.26957031 -45.4296875 284.265625 C-46.40147949 284.26336914 -47.37327148 284.26111328 -48.37451172 284.25878906 C-51.0558838 283.99449165 -52.70308647 283.36742059 -55 282 C-55.39630525 276.37246543 -54.25756821 272.64885528 -51.5625 267.8125 C-48.68238324 262.64077304 -48.68238324 262.64077304 -47 257 C-48.32 256.67 -49.64 256.34 -51 256 C-49.51458776 245.36245518 -47.43344273 234.88680425 -45.25 224.375 C-45.0719281 223.51363434 -44.8938562 222.65226868 -44.71038818 221.76480103 C-40.3753915 200.80038156 -35.71633099 179.93266359 -30.7203064 159.11608887 C-30.50323029 158.21152954 -30.28615417 157.30697021 -30.0625 156.375 C-29.73700668 155.01888611 -29.73700668 155.01888611 -29.40493774 153.63537598 C-25.76676121 138.4540959 -22.39613258 123.23451128 -19.23548889 107.94735718 C-18.26287212 103.24599496 -17.26825995 98.54967855 -16.26171875 93.85546875 C-13.16483752 79.40106673 -10.14886902 64.93301842 -7.25 50.4375 C-7.03573364 49.36752777 -7.03573364 49.36752777 -6.81713867 48.27593994 C-6.132446 44.85197985 -5.45408517 41.42696875 -4.78710938 37.99951172 C-4.26999176 35.34472163 -3.72726614 32.69705952 -3.16601562 30.05126953 C-1.0692726 19.77443644 -0.59725012 10.75050219 0 0 Z " fill="#76B0FA" transform="translate(167,263)"/>
<path d="M0 0 C1.1153855 1.67307825 2.22969204 3.34688186 3.33984375 5.0234375 C7.95795293 11.82075223 13.13079439 18.05041443 18.49560547 24.25732422 C20.04597703 26.05325933 21.5883729 27.85577729 23.12890625 29.66015625 C25.656271 32.61958959 28.19061083 35.57290377 30.72949219 38.52246094 C31.76238441 39.72366457 32.79186189 40.92780385 33.8203125 42.1328125 C42.75002556 52.49845932 52.24447975 62.41267837 62 72 C62 66.72 62 61.44 62 56 C62.66 56.33 63.32 56.66 64 57 C64.01417969 57.98613281 64.02835937 58.97226563 64.04296875 59.98828125 C64.41578869 73.11720639 66.82344091 85.6746639 69.3359375 98.53857422 C70.39836079 104.07645561 71.3683767 109.62838424 72.3125 115.1875 C72.48370361 116.16025879 72.65490723 117.13301758 72.83129883 118.13525391 C73.73774618 123.50794599 74.17286497 128.55155212 74 134 C74.99 134.33 75.98 134.66 77 135 C76.01 135 75.02 135 74 135 C74.05800781 135.98613281 74.11601562 136.97226562 74.17578125 137.98828125 C74.95304085 157.87754382 69.66428602 177.26306094 65.44946289 196.56787109 C63.8803565 203.77889284 62.38439414 211.00030325 60.9453125 218.23828125 C60.76871597 219.12646042 60.59211945 220.01463959 60.41017151 220.92973328 C59.53614408 225.33391469 58.66738832 229.73908952 57.8034668 234.14526367 C56.09261167 242.82767653 54.28281286 251.44505474 52 260 C38.97023059 257.79539987 24.17365381 240.06649996 16 230 C15.10058295 228.93592521 14.20080966 227.87215149 13.30078125 226.80859375 C-7.9568259 201.34378792 -22.14301374 170.61799084 -28 138 C-28.18618896 136.97575928 -28.37237793 135.95151855 -28.56420898 134.89624023 C-30.19613586 124.89497383 -30.35577029 115.04135678 -30.3125 104.9375 C-30.31100952 104.07793701 -30.30951904 103.21837402 -30.3079834 102.33276367 C-30.2675427 89.35914766 -29.7827913 76.717871 -27 64 C-26.59974609 62.09734375 -26.59974609 62.09734375 -26.19140625 60.15625 C-21.16344428 39.2399282 -12.25252411 17.72787082 0 0 Z " fill="#EAF1FA" transform="translate(93,128)"/>
<path d="M0 0 C0.48212214 1.56159059 0.96055873 3.12431928 1.4375 4.6875 C1.70433594 5.55761719 1.97117187 6.42773438 2.24609375 7.32421875 C2.49488281 8.20722656 2.74367188 9.09023438 3 10 C3.22703613 10.75579346 3.45407227 11.51158691 3.68798828 12.2902832 C4.0961543 15.83506771 3.18062815 17.77438785 1.74609375 21.03125 C1.22853516 22.22041016 0.71097656 23.40957031 0.17773438 24.63476562 C-0.4011602 25.9237093 -0.98127014 27.2121077 -1.5625 28.5 C-2.15716591 29.83516852 -2.75156286 31.17045686 -3.34570312 32.50585938 C-4.90064845 35.98577503 -6.47798927 39.45516068 -8.05889893 42.92333984 C-8.97778683 44.95098379 -9.88348273 46.98396561 -10.78466797 49.01953125 C-17.34496476 63.80956888 -23.72849344 77.0619859 -36 88 C-38.33939784 90.31163051 -40.65232859 92.64608299 -42.95703125 94.9921875 C-46.818057 98.91011258 -50.73682232 102.70862172 -54.9453125 106.25390625 C-56.37414476 107.46814203 -57.76288087 108.7305077 -59.1171875 110.02734375 C-64.50047679 114.86464106 -64.50047679 114.86464106 -68.76953125 115.25 C-71.57342235 115.00451569 -74.24461724 114.56765028 -77 114 C-78.3946948 113.80421095 -79.79039959 113.61531278 -81.1875 113.4375 C-82.5796875 113.2209375 -82.5796875 113.2209375 -84 113 C-84.04125 114.051875 -84.0825 115.10375 -84.125 116.1875 C-85.00506999 120.02209067 -85.86216563 121.78731611 -89.05859375 124.12109375 C-94.00277252 126.35940406 -99.24489308 125.57378495 -104.25 123.9375 C-107.774281 121.45448384 -110.57319606 118.57136041 -113 115 C-113 114.34 -113 113.68 -113 113 C-113.90878906 113.2165625 -113.90878906 113.2165625 -114.8359375 113.4375 C-115.67382812 113.623125 -116.51171875 113.80875 -117.375 114 C-118.59316406 114.2784375 -118.59316406 114.2784375 -119.8359375 114.5625 C-131.83930127 116.22222437 -131.83930127 116.22222437 -137.67578125 112.32421875 C-139.24108266 111.13756297 -140.78622261 109.92394562 -142.3125 108.6875 C-143.13645264 108.048125 -143.96040527 107.40875 -144.80932617 106.75 C-147.22806293 104.85898334 -149.61670759 102.93539424 -152 101 C-152.6290625 100.49936035 -153.258125 99.9987207 -153.90625 99.48291016 C-157.72016778 96.44369443 -161.38521013 93.27247603 -165 90 C-165.58120605 89.4853418 -166.16241211 88.97068359 -166.76123047 88.44042969 C-176.4731889 79.75283003 -182.58534317 70.83202788 -188 59 C-187.06329852 57.90036097 -186.12560092 56.80157042 -185.1875 55.703125 C-184.40439453 54.78515137 -184.40439453 54.78515137 -183.60546875 53.84863281 C-154.01793289 19.77977309 -105.14781727 0.05904942 -61.09130859 -3.7890625 C-40.45784005 -5.19700096 -20.33297292 -3.50216758 0 0 Z " fill="#EAF1FA" transform="translate(299,45)"/>
<path d="M0 0 C7.66856498 3.49388555 13.73846739 11.17215421 18.33203125 18.0625 C18.90082763 20.72931582 18.7717777 22.34775113 17.33105469 24.68945312 C15.85059344 26.62272356 14.29824153 28.46928194 12.70703125 30.3125 C12.12961182 31.0019873 11.55219238 31.69147461 10.95727539 32.40185547 C9.72741567 33.86988584 8.49264104 35.33381029 7.25341797 36.79394531 C4.68083634 39.83135681 2.14045703 42.8946487 -0.39404297 45.96386719 C-1.59092709 47.41311214 -2.79159745 48.85924102 -3.99658203 50.30175781 C-6.48812077 53.30380419 -8.87804412 56.28298039 -11.0078125 59.5546875 C-11.55566406 60.38226563 -12.10351562 61.20984375 -12.66796875 62.0625 C-12.99796875 62.0625 -13.32796875 62.0625 -13.66796875 62.0625 C-13.99796875 56.4525 -14.32796875 50.8425 -14.66796875 45.0625 C-14.61576172 47.54910156 -14.61576172 47.54910156 -14.5625 50.0859375 C-14.21892155 75.4803219 -15.96079295 100.73641887 -17.66796875 126.0625 C-20.92408653 127.14787259 -23.31413535 127.19592348 -26.74072266 127.20776367 C-27.99277496 127.21414352 -29.24482727 127.22052338 -30.53482056 127.22709656 C-31.90472373 127.22862605 -33.27462742 127.22973957 -34.64453125 127.23046875 C-36.05357904 127.23368391 -37.46262649 127.23704817 -38.87167358 127.24055481 C-41.82900769 127.24654511 -44.7863126 127.248395 -47.74365234 127.24780273 C-51.51269042 127.24770156 -55.28153822 127.26130786 -59.05053139 127.27857494 C-61.96410969 127.28976108 -64.87764312 127.29171986 -67.79124069 127.29119301 C-69.17935207 127.29236495 -70.56746491 127.29674204 -71.95555496 127.30452538 C-79.51096756 127.34289674 -86.36629828 127.07457124 -93.66796875 125.0625 C-93.87099609 123.41507813 -93.87099609 123.41507813 -94.078125 121.734375 C-95.24811305 112.76572979 -96.6604351 103.87437859 -98.42578125 95.00390625 C-98.58273972 94.21368073 -98.73969818 93.4234552 -98.90141296 92.60928345 C-99.69558277 88.62974549 -100.50469767 84.65379029 -101.33032227 80.68066406 C-102.88756078 73.05955968 -104.00489187 65.86965552 -103.66796875 58.0625 C-103.79779958 56.1845898 -103.95422946 54.30771878 -104.16796875 52.4375 C-104.33296875 50.99375 -104.49796875 49.55 -104.66796875 48.0625 C-104.66796875 53.3425 -104.66796875 58.6225 -104.66796875 64.0625 C-113.81964527 56.61346097 -122.38906702 48.07618817 -129.96484375 39.02734375 C-131.29601448 37.49161237 -132.69652879 36.01592378 -134.12109375 34.56640625 C-134.9615625 33.69886719 -135.80203125 32.83132812 -136.66796875 31.9375 C-137.45171875 31.15117187 -138.23546875 30.36484375 -139.04296875 29.5546875 C-140.66796875 27.0625 -140.66796875 27.0625 -140.609375 24.0625 C-138.06628239 15.95837085 -131.27666775 8.28132829 -124.66796875 3.0625 C-122.78051758 2.28125 -122.78051758 2.28125 -120.66796875 2.0625 C-118.83935547 3.25219727 -118.83935547 3.25219727 -116.97265625 5.06640625 C-112.76078083 8.98884923 -108.39148099 12.54118811 -103.79296875 16 C-103.05433594 16.58845703 -102.31570312 17.17691406 -101.5546875 17.78320312 C-95.83150166 22.05327506 -91.710186 22.82326618 -84.66796875 22.0625 C-83.62382812 21.9903125 -82.5796875 21.918125 -81.50390625 21.84375 C-80.69179687 21.7509375 -79.8796875 21.658125 -79.04296875 21.5625 C-78.20507812 21.4696875 -77.3671875 21.376875 -76.50390625 21.28125 C-75.89804688 21.2090625 -75.2921875 21.136875 -74.66796875 21.0625 C-74.11109375 21.97 -73.55421875 22.8775 -72.98046875 23.8125 C-70.07186284 27.90027047 -67.45292573 30.46751434 -62.66796875 32.0625 C-57.91272863 32.55414347 -53.96307444 32.73703421 -49.66796875 30.5 C-47.21681819 27.51266025 -46.63638067 24.76754026 -45.66796875 21.0625 C-44.49621094 21.23910156 -43.32445312 21.41570312 -42.1171875 21.59765625 C-33.10985984 22.7938504 -33.10985984 22.7938504 -24.515625 20.58203125 C-21.67381239 18.23593332 -19.18994216 15.75067797 -16.66796875 13.0625 C-14.85521037 11.26300322 -13.02200425 9.48903264 -11.17089844 7.72900391 C-9.93723774 6.55211855 -8.7209028 5.35674723 -7.52441406 4.14208984 C-3.35632665 0.07862551 -3.35632665 0.07862551 0 0 Z " fill="#FEFEFE" transform="translate(260.66796875,136.9375)"/>
<path d="M0 0 C11.47070813 8.55057359 19.83555184 21.33216417 22.15234375 35.5703125 C23.86200055 51.84718206 20.47399438 66.49477694 10.625 79.71875 C1.94024714 90.10193235 -10.0322371 97.32945453 -23.5625 99.28515625 C-41.52577269 100.45459768 -56.32230525 97.62197098 -70.3125 85.59765625 C-80.6931146 75.70571538 -86.9183351 63.21118396 -87.765625 48.83984375 C-87.96373128 33.2885008 -84.26997426 18.63817671 -73.3515625 6.90234375 C-52.4747036 -11.96887805 -23.94411759 -16.02357869 0 0 Z " fill="#45AB13" transform="translate(489.5625,31.71484375)"/>
<path d="M0 0 C1.20301254 -0.00845947 2.40602509 -0.01691895 3.64549255 -0.02563477 C4.98050062 -0.01980172 6.31550735 -0.0136572 7.6505127 -0.00723267 C9.05494088 -0.01129727 10.45936587 -0.01663853 11.86378479 -0.02316284 C15.67988211 -0.03685563 19.4957365 -0.03152982 23.31183815 -0.02202559 C27.30229988 -0.0144391 31.29274059 -0.02147178 35.28320312 -0.02618408 C41.98494203 -0.03164459 48.6865818 -0.02444231 55.38830566 -0.01016235 C63.14039348 0.00616478 70.89224461 0.00087647 78.64432669 -0.01564157 C85.29577968 -0.02924806 91.94716134 -0.03118022 98.59862375 -0.02332556 C102.57314847 -0.01864441 106.54756187 -0.01803625 110.52207947 -0.02793503 C114.25841306 -0.0365903 117.99444099 -0.03060947 121.7307415 -0.01325226 C123.10337758 -0.00927966 124.47603931 -0.01043467 125.84866524 -0.01704025 C127.7194948 -0.02521446 129.59038047 -0.0131553 131.46118164 0 C133.03298565 0.00169662 133.03298565 0.00169662 134.63654327 0.00342751 C137.23059082 0.38095093 137.23059082 0.38095093 139.06790924 1.68465233 C141.04781124 4.57323768 140.6357094 7.8808695 140.59387207 11.25985718 C140.59461983 12.41166725 140.59461983 12.41166725 140.59538269 13.58674622 C140.59304415 15.20819693 140.58332851 16.82965141 140.56677246 18.45101929 C140.54314492 20.93775736 140.54621705 23.42342576 140.55285645 25.9102478 C140.54728076 27.48512401 140.54017157 29.05999569 140.53137207 30.63485718 C140.53228348 31.38070572 140.53319489 32.12655426 140.53413391 32.89500427 C140.46163373 38.14990802 140.46163373 38.14990802 138.23059082 40.38095093 C135.74397373 40.63263321 135.74397373 40.63263321 132.54347229 40.63491821 C130.72839424 40.64337769 130.72839424 40.64337769 128.87664795 40.65200806 C127.52856386 40.64811909 126.18048036 40.64402273 124.83239746 40.63973999 C123.418267 40.64244888 122.00413796 40.64600924 120.5900116 40.65036011 C116.74290884 40.65949938 112.89591303 40.65593335 109.04880834 40.64960194 C105.027648 40.64454888 101.00649699 40.64923154 96.9853363 40.65237427 C90.23056388 40.65601637 83.47583513 40.65120888 76.72106934 40.64169312 C68.90713149 40.63081249 61.09329804 40.6343303 53.27936274 40.64534593 C46.57698645 40.65441713 39.87464162 40.65570477 33.17226118 40.65046859 C29.1664445 40.6473474 25.1606769 40.64694353 21.15486336 40.65354156 C17.38823745 40.65931183 13.62174629 40.65532405 9.85513496 40.64375305 C8.47120894 40.64110456 7.08727162 40.64187479 5.70335007 40.64627838 C3.81713511 40.65172762 1.93089543 40.64368873 0.04469299 40.63491821 C-1.01184951 40.63416416 -2.06839201 40.63341011 -3.15695095 40.63263321 C-5.76940918 40.38095093 -5.76940918 40.38095093 -8.76940918 38.38095093 C-9.07381719 35.72073124 -9.18952205 33.29702764 -9.16784668 30.63485718 C-9.17071686 29.86794052 -9.17358704 29.10102386 -9.17654419 28.31086731 C-9.17858704 26.68765526 -9.17304168 25.06441872 -9.16052246 23.44125366 C-9.14449271 20.95639898 -9.16035113 18.47317621 -9.17956543 15.9883728 C-9.1775826 14.41219733 -9.17373812 12.83602288 -9.16784668 11.25985718 C-9.17391937 10.51603287 -9.17999207 9.77220856 -9.18624878 9.00584412 C-9.11650239 3.88691224 -9.11650239 3.88691224 -7.60573578 1.68465233 C-5.01735962 -0.1529672 -3.16029281 0.00341124 0 0 Z " fill="#BCCDE1" transform="translate(325.7694091796875,251.61904907226563)"/>
<path d="M0 0 C4.74191919 2.04234672 8.05993131 4.68960122 11.0625 8.875 C12.23985071 12.79950238 12.21130683 15.91473463 12 20 C13.051875 20.061875 14.10375 20.12375 15.1875 20.1875 C20.52755532 21.32554458 22.53439049 23.94814669 25.62109375 28.26953125 C27.2780413 31.55056904 27.36853214 33.77816997 27.3125 37.4375 C27.30863281 38.52933594 27.30476563 39.62117188 27.30078125 40.74609375 C26.99067914 44.1008348 26.18931589 46.85850027 25 50 C26.670625 49.938125 26.670625 49.938125 28.375 49.875 C32 50 32 50 34 52 C34.19990227 54.84540142 34.27976976 57.59137784 34.265625 60.4375 C34.26849518 61.6913147 34.26849518 61.6913147 34.27142334 62.97045898 C34.27278536 64.73909811 34.26908776 66.50774723 34.26074219 68.27636719 C34.25004275 70.98915994 34.26063676 73.70129044 34.2734375 76.4140625 C34.27211591 78.1302098 34.26955352 79.84635669 34.265625 81.5625 C34.26967346 82.37710693 34.27372192 83.19171387 34.27789307 84.03100586 C34.22991928 89.77008072 34.22991928 89.77008072 32 92 C29.53308105 92.25396729 29.53308105 92.25396729 26.38867188 92.25878906 C25.21405396 92.26509338 24.03943604 92.27139771 22.82922363 92.27789307 C21.55526733 92.2738446 20.28131104 92.26979614 18.96875 92.265625 C17.66675659 92.26753845 16.36476318 92.2694519 15.02331543 92.27142334 C12.26598372 92.27437391 9.50878151 92.27007924 6.75146484 92.26074219 C3.21372927 92.24934753 -0.32370287 92.25590738 -3.86142731 92.26788712 C-7.23055934 92.27684394 -10.59960934 92.2705764 -13.96875 92.265625 C-15.2427063 92.26967346 -16.5166626 92.27372192 -17.82922363 92.27789307 C-19.00384155 92.27158875 -20.17845947 92.26528442 -21.38867188 92.25878906 C-22.94515442 92.25640228 -22.94515442 92.25640228 -24.53308105 92.25396729 C-27 92 -27 92 -29 90 C-29.19990227 87.15459858 -29.27976976 84.40862216 -29.265625 81.5625 C-29.26753845 80.72662354 -29.2694519 79.89074707 -29.27142334 79.02954102 C-29.27278536 77.26090189 -29.26908776 75.49225277 -29.26074219 73.72363281 C-29.25004275 71.01084006 -29.26063676 68.29870956 -29.2734375 65.5859375 C-29.27211591 63.8697902 -29.26955352 62.15364331 -29.265625 60.4375 C-29.26967346 59.62289307 -29.27372192 58.80828613 -29.27789307 57.96899414 C-29.22991928 52.22991928 -29.22991928 52.22991928 -27 50 C-23.875 49.875 -23.875 49.875 -21 50 C-21.32307129 49.49710449 -21.64614258 48.99420898 -21.97900391 48.47607422 C-23.35925359 45.12875421 -23.32467244 41.94731244 -23.3359375 38.3828125 C-23.3425943 37.6480368 -23.3492511 36.91326111 -23.35610962 36.15621948 C-23.36621448 34.60465998 -23.37092731 33.05305721 -23.37060547 31.50146484 C-23.37497307 29.13956291 -23.41129571 26.77953963 -23.44921875 24.41796875 C-23.45508874 22.90625635 -23.45905691 21.39453513 -23.4609375 19.8828125 C-23.47530853 19.18261993 -23.48967957 18.48242737 -23.50448608 17.76101685 C-23.45086667 11.94581173 -21.40237262 8.41961453 -17.3671875 4.35546875 C-11.52358118 -0.21845347 -7.40120543 -1.02388217 0 0 Z " fill="#F9DAB1" transform="translate(351,455)"/>
<path d="M0 0 C0.88929199 -0.01772461 1.77858398 -0.03544922 2.69482422 -0.05371094 C3.53674316 -0.05274414 4.37866211 -0.05177734 5.24609375 -0.05078125 C6.00462646 -0.05376221 6.76315918 -0.05674316 7.54467773 -0.05981445 C10.10015801 0.4117049 10.99235377 1.27802678 12.5625 3.3125 C12.78515625 5.46875 12.78515625 5.46875 12.625 7.8125 C12.38678182 11.4773951 12.40165759 12.07123639 14.5625 15.3125 C14.76100603 19.01794587 14.73914871 21.78255387 13.5625 25.3125 C13.30960436 29.63404025 13.32025659 33.91960041 14.0625 38.1875 C15.77107498 48.86609362 14.90768267 59.0074777 8.5 67.9375 C6.96484375 69.9140625 6.96484375 69.9140625 5.5625 71.3125 C4.9025 71.3125 4.2425 71.3125 3.5625 71.3125 C3.62050781 72.03695312 3.67851562 72.76140625 3.73828125 73.5078125 C4.15276543 82.38961643 4.15276543 82.38961643 1.1875 85.9375 C-2.91175787 89.64635236 -5.53749167 89.60438232 -10.90625 89.51953125 C-15.90027816 89.11106907 -19.09719707 86.91223377 -22.5546875 83.46875 C-26.72679972 78.50987093 -26.32726319 73.09399372 -26.3125 66.875 C-26.333125 65.76189453 -26.35375 64.64878906 -26.375 63.50195312 C-26.42187676 60.77138207 -26.44196172 58.04338913 -26.4375 55.3125 C-27.22608398 55.33755615 -28.01466797 55.3626123 -28.82714844 55.38842773 C-31.4375 55.3125 -31.4375 55.3125 -33.203125 54.09765625 C-36.79349026 49.93094289 -37.9859348 47.0414076 -38.2265625 41.5625 C-38.44836167 39.19664221 -39.0482365 37.54048026 -40 35.375 C-41.86505114 30.67507114 -42.39707464 26.30383585 -41.4375 21.3125 C-39.82273956 17.96994589 -37.75022263 15.20201676 -35.4375 12.3125 C-35.05464844 11.73371094 -34.67179688 11.15492187 -34.27734375 10.55859375 C-30.78663786 5.56650899 -26.02234967 4.03346108 -20.4375 2.3125 C-19.72207031 2.085625 -19.00664062 1.85875 -18.26953125 1.625 C-12.26691127 0.09512871 -6.15969206 0.07657227 0 0 Z " fill="#F9B28C" transform="translate(211.4375,80.6875)"/>
<path d="M0 0 C1.5625 1.625 1.5625 1.625 3 4 C4.11375 5.5159375 4.11375 5.5159375 5.25 7.0625 C7.95390763 11.8694469 7.15373434 16.78448862 6 22 C5.443125 23.093125 4.88625 24.18625 4.3125 25.3125 C2.6759641 27.92567155 2.6759641 27.92567155 3.68164062 30.63989258 C5.25215218 34.6426612 6.97925579 38.54610939 8.78125 42.44921875 C9.15423218 43.26131302 9.52721436 44.07340729 9.91149902 44.91011047 C10.70336958 46.63133425 11.4969042 48.3517933 12.29199219 50.0715332 C13.47415938 52.63154158 14.64756406 55.19543171 15.8203125 57.75976562 C18.16516873 62.86333959 20.56186769 67.94034569 23 73 C23.61726959 74.28235031 23.61726959 74.28235031 24.24700928 75.59060669 C29.09189805 85.53775057 33.7183368 94.13214255 42.125 101.5625 C43.63114833 102.95581399 45.13395999 104.3527468 46.6328125 105.75390625 C47.28137207 106.33470947 47.92993164 106.9155127 48.59814453 107.51391602 C50 109 50 109 50 111 C48.49609375 112.41015625 48.49609375 112.41015625 46.4375 114.0625 C40.22630277 119.3486253 35.26727542 125.5044858 32 133 C28.38825082 130.27855962 25.56199605 127.47332467 22.75 123.9375 C20.38044007 120.97060527 18.01259761 118.01487526 15.55859375 115.1171875 C14.77613281 114.19164062 13.99367187 113.26609375 13.1875 112.3125 C12.47980469 111.48363281 11.77210937 110.65476562 11.04296875 109.80078125 C5.25359586 101.86391631 2.87315705 92.72228421 0.125 83.4375 C-0.31766038 81.96008494 -0.76045129 80.48270899 -1.20336914 79.00537109 C-4.2735205 68.70880948 -7.12459795 58.36580866 -9.74609375 47.9453125 C-9.95032959 47.14432129 -10.15456543 46.34333008 -10.36499023 45.51806641 C-10.82327856 43.70077083 -11.2662137 41.87957948 -11.69946289 40.05615234 C-11.94301514 39.07855957 -12.18656738 38.1009668 -12.4375 37.09375 C-12.65148437 36.20623047 -12.86546875 35.31871094 -13.0859375 34.40429688 C-14.40651343 30.93073071 -16.68703771 29.14887911 -19.4140625 26.73828125 C-22.26165181 23.61715503 -22.59171686 20.08283135 -23 16 C-23.11601563 15.29359375 -23.23203125 14.5871875 -23.3515625 13.859375 C-23.662387 10.84322619 -23.51554355 8.65311838 -21.609375 6.23828125 C-15.77607753 1.00099461 -7.84668331 -2.75694278 0 0 Z " fill="#FEB68E" transform="translate(88,29)"/>
<path d="M0 0 C3.96 0 7.92 0 12 0 C12 8.58 12 17.16 12 26 C17.17574802 25.92096705 17.17574802 25.92096705 22.35107422 25.81982422 C24.23495049 25.80522783 26.11869312 25.90056518 28 26 C30 28 30 28 30.125 30.625 C30.08375 31.40875 30.0425 32.1925 30 33 C30.69268982 32.99111755 31.38537964 32.98223511 32.09906006 32.9730835 C39.30130776 32.88466617 46.50340157 32.82428867 53.70605469 32.78027344 C56.39504466 32.762401 59.08365826 32.73455525 61.77246094 32.69824219 C65.63487561 32.64978385 69.49671208 32.62704374 73.359375 32.609375 C74.5636615 32.58872986 75.767948 32.56808472 77.00872803 32.54681396 C78.12958801 32.54651184 79.250448 32.54620972 80.40527344 32.54589844 C81.39122498 32.53701599 82.37717651 32.52813354 83.39300537 32.51898193 C86.76500924 33.14115229 87.96409369 34.28181035 90 37 C89.9375 40.625 89.9375 40.625 89 44 C85.6133046 46.25779693 84.48309149 46.24486783 80.51879883 46.22705078 C79.39786331 46.22689972 78.2769278 46.22674866 77.12202454 46.22659302 C75.91257675 46.21627045 74.70312897 46.20594788 73.45703125 46.1953125 C71.59893074 46.19106766 71.59893074 46.19106766 69.70329285 46.18673706 C66.41361913 46.17743186 63.12414137 46.15946791 59.83453369 46.1373291 C56.47630206 46.1168527 53.11804172 46.10773152 49.75976562 46.09765625 C43.17310027 46.07558271 36.58656617 46.04209522 30 46 C30.04125 46.78375 30.0825 47.5675 30.125 48.375 C30 51 30 51 28 53 C26.14050293 53.25396729 26.14050293 53.25396729 23.85742188 53.25878906 C23.00313599 53.26509338 22.1488501 53.27139771 21.26867676 53.27789307 C20.34470093 53.2738446 19.4207251 53.26979614 18.46875 53.265625 C17.52189331 53.26753845 16.57503662 53.2694519 15.5994873 53.27142334 C13.59545628 53.27278573 11.59141646 53.26908556 9.58740234 53.26074219 C6.51249447 53.25004347 3.43817086 53.26063572 0.36328125 53.2734375 C-1.58073046 53.27211591 -3.52474181 53.26955354 -5.46875 53.265625 C-6.39272583 53.26967346 -7.31670166 53.27372192 -8.26867676 53.27789307 C-9.12296265 53.27158875 -9.97724854 53.26528442 -10.85742188 53.25878906 C-11.61083862 53.25719788 -12.36425537 53.25560669 -13.14050293 53.25396729 C-15 53 -15 53 -17 51 C-17.125 48.375 -17.125 48.375 -17 46 C-18.05782684 46.01665459 -18.05782684 46.01665459 -19.13702393 46.03364563 C-25.7873522 46.13388586 -32.4374693 46.20998354 -39.08838272 46.25906086 C-42.50765493 46.28514091 -45.92630228 46.3205065 -49.34521484 46.37719727 C-53.27694178 46.44198227 -57.20841689 46.4661939 -61.140625 46.48828125 C-62.36678528 46.51408768 -63.59294556 46.5398941 -64.85626221 46.56648254 C-66.56758331 46.56704903 -66.56758331 46.56704903 -68.31347656 46.56762695 C-69.81905121 46.58428154 -69.81905121 46.58428154 -71.3550415 46.60127258 C-74 46 -74 46 -76.35931396 43.62858582 C-78 41 -78 41 -77.9375 38.375 C-76.90869915 35.76870451 -76.21145179 34.6963495 -74 33 C-71.47529602 32.63923645 -71.47529602 32.63923645 -68.42700195 32.65942383 C-66.71556755 32.65976372 -66.71556755 32.65976372 -64.96955872 32.66011047 C-63.73823715 32.67559433 -62.50691559 32.69107819 -61.23828125 32.70703125 C-59.34688667 32.71339851 -59.34688667 32.71339851 -57.4172821 32.71989441 C-54.06825057 32.73385373 -50.71983242 32.76079896 -47.37097168 32.79400635 C-43.95244647 32.82471895 -40.53385785 32.83840224 -37.11523438 32.85351562 C-30.40998651 32.88662777 -23.70502867 32.93685982 -17 33 C-17.04125 32.21625 -17.0825 31.4325 -17.125 30.625 C-17 28 -17 28 -15 26 C-12.41048555 25.85452166 -9.95814609 25.81350948 -7.375 25.875 C-3.724375 25.936875 -3.724375 25.936875 0 26 C0 17.42 0 8.84 0 0 Z " fill="#A2B9D2" transform="translate(385,389)"/>
<path d="M0 0 C1.22589844 0.01353516 1.22589844 0.01353516 2.4765625 0.02734375 C3.10304688 0.03894531 3.72953125 0.05054687 4.375 0.0625 C4.87 1.5475 4.87 1.5475 5.375 3.0625 C6.07625 2.959375 6.7775 2.85625 7.5 2.75 C11.50472952 3.18529669 13.90460462 5.00762622 16.375 8.0625 C18.51525807 14.23147915 16.80980094 21.144805 14.375 27.0625 C13.15490234 28.25359375 13.15490234 28.25359375 11.91015625 29.46875 C8.90318295 32.54522191 7.97154141 35.38566766 6.9375 39.4375 C6.7327002 40.17806641 6.52790039 40.91863281 6.31689453 41.68164062 C5.18620914 45.81642691 4.14505097 49.97242514 3.11328125 54.1328125 C0.34627316 65.22216077 -2.74396548 76.18774493 -6.24066162 87.06835938 C-6.6976013 88.49893236 -7.14682121 89.93199914 -7.58746338 91.36767578 C-10.73019677 101.55734174 -14.74523669 108.79201956 -21.625 117.0625 C-22.56266564 118.31934554 -23.49088146 119.58339927 -24.40234375 120.859375 C-25.47162109 122.32117188 -25.47162109 122.32117188 -26.5625 123.8125 C-27.29339844 124.81796875 -28.02429688 125.8234375 -28.77734375 126.859375 C-29.69193359 127.94992188 -29.69193359 127.94992188 -30.625 129.0625 C-31.285 129.0625 -31.945 129.0625 -32.625 129.0625 C-33.8515625 127.375 -33.8515625 127.375 -35.25 125.0625 C-39.65904159 118.21716648 -45.25192619 113.06597043 -51.625 108.0625 C-50.77228516 107.13630859 -50.77228516 107.13630859 -49.90234375 106.19140625 C-49.13019531 105.34449219 -48.35804688 104.49757813 -47.5625 103.625 C-46.80839844 102.80128906 -46.05429687 101.97757812 -45.27734375 101.12890625 C-44.3886154 100.11077987 -43.50496968 99.08820598 -42.625 98.0625 C-42.09181152 97.45253174 -41.55862305 96.84256348 -41.00927734 96.21411133 C-35.55939027 89.64533781 -31.983653 82.29515012 -28.375 74.625 C-27.72471409 73.25922748 -27.07432199 71.89350552 -26.42382812 70.52783203 C-22.17666241 61.56413514 -18.06866687 52.53882107 -14.125 43.4375 C-13.65030273 42.36056885 -13.17560547 41.2836377 -12.68652344 40.17407227 C-12.2640332 39.17561279 -11.84154297 38.17715332 -11.40625 37.1484375 C-11.03564453 36.2826709 -10.66503906 35.4169043 -10.28320312 34.52490234 C-9.50529996 31.61469042 -9.81903156 29.94087576 -10.625 27.0625 C-14.17251733 14.33317312 -14.17251733 14.33317312 -11.3515625 8.37109375 C-6.41596131 -0.09165659 -6.41596131 -0.09165659 0 0 Z " fill="#FEB68E" transform="translate(311.625,27.9375)"/>
<path d="M0 0 C4.74191919 2.04234672 8.05993131 4.68960122 11.0625 8.875 C12.23985071 12.79950238 12.21130683 15.91473463 12 20 C13.051875 20.061875 14.10375 20.12375 15.1875 20.1875 C20.52690194 21.32540533 22.53150334 23.94764322 25.62109375 28.265625 C27.28425051 31.56366956 27.36834468 33.82284232 27.3125 37.5 C27.30863281 38.6034375 27.30476563 39.706875 27.30078125 40.84375 C26.98183588 44.19060528 26.46945177 47.53054823 24 50 C22.63510917 50.11345662 21.26450598 50.15950227 19.89501953 50.17700195 C18.58828781 50.19625481 18.58828781 50.19625481 17.25515747 50.21589661 C16.30728363 50.22328354 15.35940979 50.23067047 14.3828125 50.23828125 C13.41471649 50.246353 12.44662048 50.25442474 11.44918823 50.26274109 C9.39631959 50.27659884 7.34342774 50.28731339 5.29052734 50.29516602 C2.14506576 50.31239012 -0.99934818 50.35626241 -4.14453125 50.40039062 C-6.13540891 50.41051597 -8.12629553 50.41903257 -10.1171875 50.42578125 C-11.06101288 50.44328934 -12.00483826 50.46079742 -12.9772644 50.47883606 C-19.38318647 50.45747784 -19.38318647 50.45747784 -22.09057617 48.44946289 C-23.33852175 45.0882178 -23.44834556 41.92167798 -23.43359375 38.3828125 C-23.4388356 37.6480368 -23.44407745 36.91326111 -23.44947815 36.15621948 C-23.45588892 34.60464742 -23.45457352 33.05302671 -23.44604492 31.50146484 C-23.43755181 29.1394082 -23.46627687 26.77978557 -23.49804688 24.41796875 C-23.49965963 22.90625072 -23.49907994 21.39452844 -23.49609375 19.8828125 C-23.50732773 19.18261993 -23.51856171 18.48242737 -23.53013611 17.76101685 C-23.44851694 11.95479622 -21.39814266 8.41535421 -17.3671875 4.35546875 C-11.52358118 -0.21845347 -7.40120543 -1.02388217 0 0 Z " fill="#399A0D" transform="translate(351,455)"/>
<path d="M0 0 C2.10084701 -0.01718633 4.2001085 -0.06106997 6.30053711 -0.10522461 C7.64232244 -0.1153545 8.98412112 -0.12386968 10.32592773 -0.13061523 C12.15281128 -0.15248901 12.15281128 -0.15248901 14.01660156 -0.17480469 C17.91449401 0.38203709 19.53314351 1.55821466 22.30639648 4.29516602 C23.73301867 7.14841039 23.61673516 9.12971151 23.30639648 12.29516602 C21.23888622 15.71450991 19.77928673 17.08190179 16.11889648 18.73266602 C13.00841739 20.03774636 13.00841739 20.03774636 12.36889648 23.29516602 C12.13727054 26.34765338 12.13727054 26.34765338 13.30639648 29.29516602 C14.09812256 29.2992749 14.88984863 29.30338379 15.70556641 29.30761719 C19.302429 29.34056756 22.89760123 29.41121644 26.49389648 29.48266602 C27.73977539 29.4884668 28.9856543 29.49426758 30.26928711 29.50024414 C40.57719802 29.74896049 40.57719802 29.74896049 43.66967773 32.64672852 C45.30639648 35.29516602 45.30639648 35.29516602 45.30639648 38.48266602 C44.30639648 41.29516602 44.30639648 41.29516602 41.30639648 43.29516602 C38.39100647 43.56259155 38.39100647 43.56259155 34.78710938 43.58569336 C33.80122581 43.5957692 33.80122581 43.5957692 32.79542542 43.60604858 C30.62322425 43.625043 28.45133177 43.62895331 26.27905273 43.63110352 C24.76834486 43.63753004 23.25763823 43.64425829 21.74693298 43.65127563 C18.58028273 43.66325168 15.41374161 43.66695609 12.24707031 43.66577148 C8.19035258 43.66556818 4.13433448 43.69288025 0.07778263 43.7273159 C-3.04235546 43.749558 -6.16232439 43.75360988 -9.28253365 43.75255203 C-10.77806575 43.75491168 -12.27360227 43.76375574 -13.76905632 43.77921677 C-15.86150953 43.79882572 -17.95244394 43.79306109 -20.04492188 43.78100586 C-21.23500351 43.7838559 -22.42508514 43.78670593 -23.65122986 43.78964233 C-27.3096972 43.19503244 -28.5220444 42.25695524 -30.69360352 39.29516602 C-30.69360352 36.23266602 -30.69360352 36.23266602 -29.69360352 33.29516602 C-26.55728849 30.23719133 -24.20581361 29.91899963 -19.90454102 29.88891602 C-18.79852539 29.86700195 -17.69250977 29.84508789 -16.55297852 29.82250977 C-14.22224983 29.80421929 -11.89152066 29.78599054 -9.56079102 29.76782227 C-8.45735352 29.7459082 -7.35391602 29.72399414 -6.21704102 29.70141602 C-4.69989502 29.69078125 -4.69989502 29.69078125 -3.15209961 29.67993164 C-2.3407959 29.55295898 -1.52949219 29.42598633 -0.69360352 29.29516602 C1.62677744 26.46948056 1.62677744 26.46948056 1.11889648 23.23266602 C0.56885151 19.99775648 0.56885151 19.99775648 -2.69360352 18.29516602 C-4.50012169 18.102103 -6.31542778 17.98421971 -8.13110352 17.92016602 C-11.59843142 17.64498126 -13.37348435 17.48872644 -16.38110352 15.67016602 C-18.23237359 12.32024874 -18.15709407 10.06930339 -17.69360352 6.29516602 C-13.93724676 -1.55903447 -7.71748389 0.04400753 0 0 Z " fill="#FEFEFE" transform="translate(339.693603515625,136.704833984375)"/>
<path d="M0 0 C0.66 0 1.32 0 2 0 C2.06135988 10.56245685 2.10200955 21.12489345 2.125 31.6875 C2.12756805 32.85901423 2.12756805 32.85901423 2.13018799 34.0541954 C2.18187941 60.75009958 1.6118648 87.34635794 0 114 C-0.33 114 -0.66 114 -1 114 C-1 108.39 -1 102.78 -1 97 C-2.340625 96.79375 -3.68125 96.5875 -5.0625 96.375 C-9.91960921 95.39799527 -14.44875742 93.89463959 -19.0625 92.125 C-19.72967041 91.88056152 -20.39684082 91.63612305 -21.08422852 91.38427734 C-25.76484547 89.52171251 -25.76484547 89.52171251 -26.78417969 87.26022339 C-27.07154271 84.25075405 -26.37712363 82.09130109 -25.48046875 79.20361328 C-25.12259277 78.033638 -24.7647168 76.86366272 -24.39599609 75.65823364 C-23.99339158 74.37885498 -23.59055295 73.09954996 -23.1875 71.8203125 C-22.77599431 70.48894384 -22.3653655 69.15730388 -21.95556641 67.82540894 C-20.86908648 64.30303357 -19.7702821 60.78461855 -18.66900635 57.2668457 C-17.57761753 53.77272872 -16.4984241 50.27485356 -15.41796875 46.77734375 C-12.96469846 38.84545943 -10.48517058 30.92193748 -8 23 C-7.63535645 21.83400269 -7.27071289 20.66800537 -6.89501953 19.4666748 C-5.91277921 16.32819947 -4.92615686 13.19114655 -3.9375 10.0546875 C-3.65052246 9.13736847 -3.36354492 8.22004944 -3.06787109 7.27493286 C-1.115704 1.115704 -1.115704 1.115704 0 0 Z " fill="#E9F1FB" transform="translate(204,319)"/>
<path d="M0 0 C0.99 0.33 1.98 0.66 3 1 C4.9906444 1.14986411 6.98535391 1.24828038 8.98046875 1.31640625 C10.14384766 1.35830078 11.30722656 1.40019531 12.50585938 1.44335938 C14.32827148 1.50233398 14.32827148 1.50233398 16.1875 1.5625 C17.41404297 1.60568359 18.64058594 1.64886719 19.90429688 1.69335938 C22.93608381 1.7995309 25.96795315 1.90157952 29 2 C29 4.64 29 7.28 29 10 C27.68 10.33 26.36 10.66 25 11 C25 11.66 25 12.32 25 13 C25.74636719 13.10957031 26.49273437 13.21914063 27.26171875 13.33203125 C30.13918722 14.03395295 31.49963052 14.89278865 33.8125 16.6875 C38.75151075 20.16744815 44.00634087 22.05569703 49.67895508 23.99487305 C54.90466476 25.80932951 54.90466476 25.80932951 56 28 C56.13415472 30.6723621 56.04318541 33.32250488 56 36 C52.10504945 37.94747527 47.28311038 37.22866446 43 37.25 C41.99582031 37.270625 40.99164063 37.29125 39.95703125 37.3125 C33.08908128 37.3480392 27.46379707 36.23364002 21 34 C19.67036118 33.65222204 18.33802313 33.31397929 17 33 C16.67 34.32 16.34 35.64 16 37 C13.70839681 37.02692484 11.41670454 37.04636124 9.125 37.0625 C7.84882813 37.07410156 6.57265625 37.08570313 5.2578125 37.09765625 C2 37 2 37 0 36 C-0.30659554 26.84755529 -0.49409003 18.65203245 3 10 C2.01 9.67 1.02 9.34 0 9 C0 6.03 0 3.06 0 0 Z " fill="#A2B8D0" transform="translate(199,510)"/>
<path d="M0 0 C0.88929199 -0.01772461 1.77858398 -0.03544922 2.69482422 -0.05371094 C3.53674316 -0.05274414 4.37866211 -0.05177734 5.24609375 -0.05078125 C6.00462646 -0.05376221 6.76315918 -0.05674316 7.54467773 -0.05981445 C10.10015801 0.4117049 10.99235377 1.27802678 12.5625 3.3125 C12.78515625 5.46875 12.78515625 5.46875 12.625 7.8125 C12.38678182 11.4773951 12.40165759 12.07123639 14.5625 15.3125 C14.90025739 19.8722248 14.56090383 23.1907921 12.5625 27.3125 C12.2325 27.3125 11.9025 27.3125 11.5625 27.3125 C11.35753906 26.61382812 11.15257812 25.91515625 10.94140625 25.1953125 C10.67199219 24.28523438 10.40257812 23.37515625 10.125 22.4375 C9.85816406 21.53257813 9.59132812 20.62765625 9.31640625 19.6953125 C8.63636174 17.32974619 8.63636174 17.32974619 7.5625 15.3125 C6.71824463 15.49425781 6.71824463 15.49425781 5.85693359 15.6796875 C-5.3687213 18.05887664 -15.9146844 20.00967876 -27.4375 19.3125 C-27.3653125 20.03953125 -27.293125 20.7665625 -27.21875 21.515625 C-26.54591208 28.80470248 -26.32072565 35.99464066 -26.4375 43.3125 C-27.31148437 42.82136719 -27.31148437 42.82136719 -28.203125 42.3203125 C-31.31305364 40.91758245 -34.07053481 41.18300134 -37.4375 41.3125 C-40.55207158 34.77746142 -42.9840127 28.60320272 -41.4375 21.3125 C-39.8143749 17.97457827 -37.75011515 15.20188247 -35.4375 12.3125 C-35.05464844 11.73371094 -34.67179688 11.15492187 -34.27734375 10.55859375 C-30.78663786 5.56650899 -26.02234967 4.03346108 -20.4375 2.3125 C-19.72207031 2.085625 -19.00664062 1.85875 -18.26953125 1.625 C-12.26691127 0.09512871 -6.15969206 0.07657227 0 0 Z " fill="#360539" transform="translate(211.4375,80.6875)"/>
<path d="M0 0 C43.23 0 86.46 0 131 0 C131 2.64 131 5.28 131 8 C87.77 8 44.54 8 0 8 C0 5.36 0 2.72 0 0 Z " fill="#7696B8" transform="translate(326,341)"/>
<path d="M0 0 C43.23 0 86.46 0 131 0 C131 2.64 131 5.28 131 8 C87.77 8 44.54 8 0 8 C0 5.36 0 2.72 0 0 Z " fill="#7797B8" transform="translate(326,292)"/>
<path d="M0 0 C3.4375 0.25 3.4375 0.25 7 1 C9 4 9 4 9.125 6.6875 C7.68301861 10.93333409 5.38383802 12.92832629 2.15625 15.95703125 C0.26061271 17.7530789 -1.43557908 19.57570651 -3.125 21.5625 C-7.22719397 26.33579022 -11.5464383 30.90275259 -15.86767578 35.47705078 C-19.05854305 38.86654461 -22.09321592 42.29753154 -25 45.9375 C-27.10940201 48.33622149 -27.79441132 48.93438659 -30.9375 49.9375 C-35.70292807 48.47869549 -38.50977223 45.46648472 -42 42 C-42.97369984 41.05181781 -43.94767354 40.10391679 -44.921875 39.15625 C-53.88437218 30.3586269 -53.88437218 30.3586269 -54.25 26.0625 C-54 23 -54 23 -52.8125 21.125 C-50.18020927 19.49116437 -49.06985896 19.3720743 -46 20 C-40.44999752 23.62476239 -36.20988353 28.95837656 -32 34 C-30.84960919 32.84960919 -29.69955293 31.69888266 -28.55078125 30.546875 C-27.49083338 29.48959702 -26.42545767 28.43774005 -25.35546875 27.390625 C-21.76509949 23.85698843 -18.39362047 20.20938919 -15.10546875 16.39453125 C-12.32896004 13.23683211 -9.47981544 10.14935606 -6.625 7.0625 C-6.0885083 6.48226074 -5.5520166 5.90202148 -4.99926758 5.30419922 C-1.17259023 1.17259023 -1.17259023 1.17259023 0 0 Z " fill="#F9FCF8" transform="translate(480,52)"/>
<path d="M0 0 C1.7114344 0.00033989 1.7114344 0.00033989 3.45744324 0.00068665 C4.6887648 0.0161705 5.92008636 0.03165436 7.1887207 0.04760742 C9.08011528 0.05397469 9.08011528 0.05397469 11.00971985 0.06047058 C14.35875138 0.0744299 17.70716954 0.10137513 21.05603027 0.13458252 C24.47455549 0.16529512 27.8931441 0.17897842 31.31176758 0.1940918 C38.01703732 0.22720405 44.72193552 0.27900966 51.42700195 0.34057617 C51.42700195 4.63057617 51.42700195 8.92057617 51.42700195 13.34057617 C44.06427725 13.4535974 36.7020275 13.54530219 29.33861923 13.59963703 C25.91934703 13.62571708 22.50069967 13.66108268 19.08178711 13.71777344 C15.15006017 13.78255844 11.21858507 13.80677007 7.28637695 13.82885742 C6.06021667 13.85466385 4.8340564 13.88047028 3.57073975 13.90705872 C1.85941864 13.9076252 1.85941864 13.9076252 0.11352539 13.90820312 C-1.39204926 13.92485771 -1.39204926 13.92485771 -2.92803955 13.94184875 C-5.57299805 13.34057617 -5.57299805 13.34057617 -7.93231201 10.96916199 C-9.57299805 8.34057617 -9.57299805 8.34057617 -9.51049805 5.71557617 C-7.5323738 0.70432807 -5.24275666 -0.03472024 0 0 Z " fill="#8EA5C4" transform="translate(316.572998046875,421.659423828125)"/>
<path d="M0 0 C0.33 0 0.66 0 1 0 C1 2.64 1 5.28 1 8 C2.5778125 8.0928125 2.5778125 8.0928125 4.1875 8.1875 C9.52690194 9.32540533 11.53150334 11.94764322 14.62109375 16.265625 C16.28425051 19.56366956 16.36834468 21.82284232 16.3125 25.5 C16.30863281 26.6034375 16.30476563 27.706875 16.30078125 28.84375 C16 32 16 32 14 37 C5.42 37 -3.16 37 -12 37 C-14.48509927 30.78725183 -14.67526755 25.61928929 -14 19 C-11.88025926 14.52499178 -9.12885367 11.7190012 -5 9 C-2.1875 8.25 -2.1875 8.25 0 8 C0 5.36 0 2.72 0 0 Z " fill="#54B51D" transform="translate(362,467)"/>
<path d="M0 0 C7.90198098 -0.09879376 15.80360337 -0.17143488 23.70605469 -0.21972656 C26.39504466 -0.237599 29.08365826 -0.26544475 31.77246094 -0.30175781 C35.63487561 -0.35021615 39.49671208 -0.37295626 43.359375 -0.390625 C44.5636615 -0.41127014 45.767948 -0.43191528 47.00872803 -0.45318604 C48.12958801 -0.45348816 49.250448 -0.45379028 50.40527344 -0.45410156 C51.39122498 -0.46298401 52.37717651 -0.47186646 53.39300537 -0.48101807 C56.76500924 0.14115229 57.96409369 1.28181035 60 4 C59.9375 7.625 59.9375 7.625 59 11 C55.6133046 13.25779693 54.48309149 13.24486783 50.51879883 13.22705078 C49.39786331 13.22689972 48.2769278 13.22674866 47.12202454 13.22659302 C45.30785286 13.21110916 45.30785286 13.21110916 43.45703125 13.1953125 C41.59893074 13.19106766 41.59893074 13.19106766 39.70329285 13.18673706 C36.41361913 13.17743186 33.12414137 13.15946791 29.83453369 13.1373291 C26.47630206 13.1168527 23.11804172 13.10773152 19.75976562 13.09765625 C13.17309037 13.07558268 6.58658326 13.04104577 0 13 C0 8.71 0 4.42 0 0 Z " fill="#8EA5C4" transform="translate(415,422)"/>
<path d="M0 0 C6.27 0.33 12.54 0.66 19 1 C21.29011817 9.01541358 23.05059504 16.6225279 22 25 C19.40331072 27.59668928 18.30612788 27.25722357 14.6953125 27.265625 C13.10783203 27.26949219 13.10783203 27.26949219 11.48828125 27.2734375 C10.37839844 27.26570312 9.26851562 27.25796875 8.125 27.25 C7.02285156 27.25773438 5.92070313 27.26546875 4.78515625 27.2734375 C3.72425781 27.27085937 2.66335937 27.26828125 1.5703125 27.265625 C0.59852051 27.26336914 -0.37327148 27.26111328 -1.37451172 27.25878906 C-4.0558838 26.99449165 -5.70308647 26.36742059 -8 25 C-8.39630525 19.37246543 -7.25756821 15.64885528 -4.5625 10.8125 C-2.61837789 7.21298679 -1.00368381 4.01473522 0 0 Z " fill="#A2B8D0" transform="translate(120,520)"/>
<path d="M0 0 C11.55 0 23.1 0 35 0 C35.495 5.259375 35.495 5.259375 36 10.625 C36.15662109 12.265896 36.15662109 12.265896 36.31640625 13.93994141 C36.75121085 18.64256015 37.12912328 23.27085993 37 28 C32.10673692 26.60192483 29.9142521 24.09570565 27 20 C25.44332709 16.29363594 25 14.0569054 25 10 C24.32122803 10.03029297 23.64245605 10.06058594 22.94311523 10.09179688 C10.29058381 10.64865818 -2.33344684 11.18536419 -15 11 C-15 8.03 -15 5.06 -15 2 C-10.38 2 -5.76 2 -1 2 C-0.67 1.34 -0.34 0.68 0 0 Z " fill="#98ACC7" transform="translate(208,263)"/>
<path d="M0 0 C1.05449341 -0.00630432 2.10898682 -0.01260864 3.19543457 -0.019104 C4.909505 -0.01303131 4.909505 -0.01303131 6.65820312 -0.00683594 C8.41142883 -0.00970612 8.41142883 -0.00970612 10.20007324 -0.01263428 C12.67488825 -0.0139972 15.14971039 -0.01029335 17.62451172 -0.00195312 C21.42366517 0.00874461 25.22234572 -0.00184512 29.02148438 -0.01464844 C31.42122501 -0.01332686 33.82096534 -0.01076451 36.22070312 -0.00683594 C37.36341675 -0.0108844 38.50613037 -0.01493286 39.68347168 -0.019104 C41.26521179 -0.00964752 41.26521179 -0.00964752 42.87890625 0 C43.80997192 0.00159119 44.7410376 0.00318237 45.70031738 0.00482178 C47.93945312 0.25878906 47.93945312 0.25878906 49.93945312 2.25878906 C49.38389757 6.81434462 49.38389757 6.81434462 47.93945312 8.25878906 C46.25143327 8.35232069 44.55950105 8.37623697 42.86889648 8.37231445 C41.78785141 8.37223892 40.70680634 8.37216339 39.59300232 8.37208557 C37.82896812 8.36434364 37.82896812 8.36434364 36.02929688 8.35644531 C34.8321254 8.35503036 33.63495392 8.35361542 32.40150452 8.35215759 C28.55996247 8.34653885 24.7184777 8.33398317 20.87695312 8.32128906 C18.27994876 8.31627648 15.68294348 8.31171315 13.0859375 8.30761719 C6.70375634 8.29656334 0.32160882 8.27980698 -6.06054688 8.25878906 C-6.68554688 5.38378906 -6.68554688 5.38378906 -7.06054688 2.25878906 C-4.5013308 -0.30042702 -3.55200969 0.00607037 0 0 Z " fill="#E1EBF4" transform="translate(405.060546875,364.7412109375)"/>
<path d="M0 0 C1.05456894 -0.00637985 2.10913788 -0.0127597 3.19566345 -0.01933289 C4.34353836 -0.02044571 5.49141327 -0.02155853 6.67407227 -0.02270508 C7.84430435 -0.02603348 9.01453644 -0.02936188 10.2202301 -0.03279114 C12.70101527 -0.03786542 15.1818073 -0.04019931 17.66259766 -0.04003906 C21.47057271 -0.0422249 25.27825794 -0.06037384 29.08618164 -0.0793457 C31.49047752 -0.08227957 33.89477478 -0.08426441 36.29907227 -0.08520508 C37.44492294 -0.09239059 38.59077362 -0.09957611 39.77134705 -0.10697937 C41.3579287 -0.10236443 41.3579287 -0.10236443 42.9765625 -0.09765625 C43.91064438 -0.09908127 44.84472626 -0.10050629 45.80711365 -0.10197449 C48.05297852 0.14526367 48.05297852 0.14526367 50.05297852 2.14526367 C49.49742296 6.70081923 49.49742296 6.70081923 48.05297852 8.14526367 C46.40106456 8.24394876 44.74494634 8.27325204 43.09008789 8.2746582 C42.03229126 8.27781036 40.97449463 8.28096252 39.88464355 8.28421021 C38.73363159 8.28218597 37.58261963 8.28016174 36.39672852 8.27807617 C34.63782288 8.27951126 34.63782288 8.27951126 32.84338379 8.28097534 C30.35839789 8.28165737 27.87341023 8.27980151 25.38842773 8.27563477 C21.56953964 8.27028686 17.75076917 8.27557903 13.93188477 8.28198242 C11.52433242 8.28132164 9.11678015 8.28004049 6.70922852 8.27807617 C4.98271057 8.28111252 4.98271057 8.28111252 3.22131348 8.28421021 C2.16351685 8.28105804 1.10572021 8.27790588 0.01586914 8.2746582 C-1.38858459 8.27346481 -1.38858459 8.27346481 -2.82141113 8.27224731 C-4.94702148 8.14526367 -4.94702148 8.14526367 -5.94702148 7.14526367 C-6.07202148 4.14526367 -6.07202148 4.14526367 -5.94702148 1.14526367 C-4.2826869 -0.51907091 -2.28731615 0.00934203 0 0 Z " fill="#E2ECF5" transform="translate(404.947021484375,267.854736328125)"/>
<path d="M0 0 C18.15 0 36.3 0 55 0 C55 2.31 55 4.62 55 7 C53.33283316 8.66716684 51.3269386 8.12744882 49.03710938 8.12939453 C47.97931274 8.13254669 46.92151611 8.13569885 45.83166504 8.13894653 C44.68065308 8.1369223 43.52964111 8.13489807 42.34375 8.1328125 C40.58484436 8.13424759 40.58484436 8.13424759 38.79040527 8.13571167 C36.30541938 8.1363937 33.82043171 8.13453784 31.33544922 8.13037109 C27.51656113 8.12502319 23.69779065 8.13031536 19.87890625 8.13671875 C17.47135391 8.13605797 15.06380163 8.13477682 12.65625 8.1328125 C10.92973206 8.13584885 10.92973206 8.13584885 9.16833496 8.13894653 C8.11053833 8.13579437 7.0527417 8.13264221 5.96289062 8.12939453 C4.55843689 8.12820114 4.55843689 8.12820114 3.12561035 8.12698364 C1 8 1 8 0 7 C0 4.69 0 2.38 0 0 Z " fill="#E1EBF4" transform="translate(399,317)"/>
<path d="M0 0 C7.26 0.33 14.52 0.66 22 1 C22 3.97 22 6.94 22 10 C20.02 10 18.04 10 16 10 C15.91363281 10.58007812 15.82726562 11.16015625 15.73828125 11.7578125 C14.68596507 17.60830427 13.32363245 20.8728963 9 25 C4.0414617 28.13703443 4.0414617 28.13703443 0.625 27.6875 C0.08875 27.460625 -0.4475 27.23375 -1 27 C-0.34 26.67 0.32 26.34 1 26 C0.34 25.67 -0.32 25.34 -1 25 C-0.67 16.75 -0.34 8.5 0 0 Z " fill="#6CA7F0" transform="translate(167,263)"/>
<path d="M0 0 C0.66 0 1.32 0 2 0 C2.92489001 1.21354995 3.79049878 2.47260707 4.625 3.75 C9.89112835 10.9322377 16.34978689 12.35947728 24.875 13.703125 C25.57625 13.80109375 26.2775 13.8990625 27 14 C28.3125 16.625 28.3125 16.625 29 20 C27.36333872 23.05556933 25.12831946 25.43584027 22 27 C16.04706147 27.55674965 11.02651909 27.54141118 6 24 C5.16082031 23.42572266 5.16082031 23.42572266 4.3046875 22.83984375 C1.66890094 20.54119268 0.20236973 18.55955005 -0.2578125 15.01318359 C-0.51896901 9.99571416 -0.30438384 5.01105984 0 0 Z " fill="#FEB58E" transform="translate(186,143)"/>
<path d="M0 0 C0.99 0.33 1.98 0.66 3 1 C4.9906444 1.14986411 6.98535391 1.24828038 8.98046875 1.31640625 C10.14384766 1.35830078 11.30722656 1.40019531 12.50585938 1.44335938 C14.32827148 1.50233398 14.32827148 1.50233398 16.1875 1.5625 C17.41404297 1.60568359 18.64058594 1.64886719 19.90429688 1.69335938 C22.93608381 1.7995309 25.96795315 1.90157952 29 2 C29 4.64 29 7.28 29 10 C27.68 10.33 26.36 10.66 25 11 C25 11.66 25 12.32 25 13 C20.32636691 16.24557854 16.55577438 17.14194804 10.9375 17.125 C9.65166016 17.12886719 9.65166016 17.12886719 8.33984375 17.1328125 C6 17 6 17 3 16 C3 14.02 3 12.04 3 10 C2.01 9.67 1.02 9.34 0 9 C0 6.03 0 3.06 0 0 Z " fill="#76B1F9" transform="translate(199,510)"/>
<path d="M0 0 C3.96 0 7.92 0 12 0 C12 8.58 12 17.16 12 26 C8.04 26 4.08 26 0 26 C0 17.42 0 8.84 0 0 Z " fill="#8BA3C2" transform="translate(385,389)"/>
<path d="M0 0 C9.57 0.66 19.14 1.32 29 2 C28.34 4.97 27.68 7.94 27 11 C25.68 11.33 24.36 11.66 23 12 C22.67 12.99 22.34 13.98 22 15 C22 14.01 22 13.02 22 12 C20.74896484 12.01740234 20.74896484 12.01740234 19.47265625 12.03515625 C12.88254338 12.08799793 6.53093626 11.88555068 0 11 C-1.51340155 6.7961068 -0.72030914 5.04216399 0 0 Z " fill="#6BA8F2" transform="translate(117,509)"/>
<path d="M0 0 C4.33739329 0.76542234 6.02474592 2.55035325 9.1875 5.5625 C8.90432074 7.16818666 8.61062209 8.77202047 8.3125 10.375 C8.15007812 11.26832031 7.98765625 12.16164063 7.8203125 13.08203125 C7.1875 15.5625 7.1875 15.5625 5.1875 18.5625 C2.5625 18.75 2.5625 18.75 0.1875 18.5625 C-0.1425 17.5725 -0.4725 16.5825 -0.8125 15.5625 C-2.1325 15.5625 -3.4525 15.5625 -4.8125 15.5625 C-4.8125 18.2025 -4.8125 20.8425 -4.8125 23.5625 C-5.4725 23.5625 -6.1325 23.5625 -6.8125 23.5625 C-6.84988281 22.93601562 -6.88726562 22.30953125 -6.92578125 21.6640625 C-6.99152344 20.84679687 -7.05726563 20.02953125 -7.125 19.1875 C-7.21201172 17.96933594 -7.21201172 17.96933594 -7.30078125 16.7265625 C-7.64240528 14.18328662 -7.64240528 14.18328662 -10.8125 12.5625 C-10.4825 11.2425 -10.1525 9.9225 -9.8125 8.5625 C-8.8225 8.5625 -7.8325 8.5625 -6.8125 8.5625 C-6.8125 7.5725 -6.8125 6.5825 -6.8125 5.5625 C-9.1225 5.2325 -11.4325 4.9025 -13.8125 4.5625 C-13.173125 4.43875 -12.53375 4.315 -11.875 4.1875 C-10.8540625 3.878125 -10.8540625 3.878125 -9.8125 3.5625 C-9.4825 2.9025 -9.1525 2.2425 -8.8125 1.5625 C-7.8225 2.5525 -6.8325 3.5425 -5.8125 4.5625 C-5.44125 3.9025 -5.07 3.2425 -4.6875 2.5625 C-2.8125 0.5625 -2.8125 0.5625 0 0 Z " fill="#F7A17F" transform="translate(318.8125,30.4375)"/>
<path d="M0 0 C3.66392084 0.59591089 7.24918046 0.64952677 10.94921875 0.625 C12.00496094 0.62209961 12.00496094 0.62209961 13.08203125 0.61914062 C17.83194068 0.57955805 22.39331214 0.2801511 27.07421875 -0.5 C27.07421875 1.15 27.07421875 2.8 27.07421875 4.5 C23.1792682 6.44747527 18.35732913 5.72866446 14.07421875 5.75 C13.07003906 5.770625 12.06585938 5.79125 11.03125 5.8125 C4.16330003 5.8480392 -1.46198418 4.73364002 -7.92578125 2.5 C-9.25542007 2.15222204 -10.58775812 1.81397929 -11.92578125 1.5 C-12.25578125 2.82 -12.58578125 4.14 -12.92578125 5.5 C-17.54578125 5.5 -22.16578125 5.5 -26.92578125 5.5 C-27.25578125 3.85 -27.58578125 2.2 -27.92578125 0.5 C-18.7893933 -0.54415862 -9.11428975 -1.55758223 0 0 Z " fill="#270A43" transform="translate(227.92578125,541.5)"/>
<path d="M0 0 C0.33786094 3.5412499 0.66947831 7.08305816 1 10.625 C1.09539062 11.62402344 1.19078125 12.62304688 1.2890625 13.65234375 C1.73400626 18.45138006 2.13177309 23.17381074 2 28 C-2.89326308 26.60192483 -5.0857479 24.09570565 -8 20 C-9.55667291 16.29363594 -10 14.0569054 -10 10 C-9.01 10 -8.02 10 -7 10 C-7 7.03 -7 4.06 -7 1 C-3 0 -3 0 0 0 Z " fill="#6AA5F0" transform="translate(243,263)"/>
<path d="M0 0 C6.93 0.33 13.86 0.66 21 1 C21 3.97 21 6.94 21 10 C17.87467015 9.85956931 14.74985182 9.71290594 11.625 9.5625 C10.73554688 9.52318359 9.84609375 9.48386719 8.9296875 9.44335938 C8.07890625 9.40146484 7.228125 9.35957031 6.3515625 9.31640625 C5.56604004 9.27974854 4.78051758 9.24309082 3.97119141 9.20532227 C2 9 2 9 0 8 C0 5.36 0 2.72 0 0 Z " fill="#2C1348" transform="translate(168,263)"/>
<path d="M0 0 C2 1 2 1 3 3.875 C3.33 4.90625 3.66 5.9375 4 7 C4.99 8.485 4.99 8.485 6 10 C6.99 10 7.98 10 9 10 C8.67 7.36 8.34 4.72 8 2 C8.99 2.33 9.98 2.66 11 3 C11 3.99 11 4.98 11 6 C12.32 6.33 13.64 6.66 15 7 C15 8.32 15 9.64 15 11 C14.01 11.66 13.02 12.32 12 13 C11.42251197 14.96361864 11.42251197 14.96361864 11.3125 17.125 C11.209375 18.40375 11.10625 19.6825 11 21 C10.67 21 10.34 21 10 21 C10 18.03 10 15.06 10 12 C5.79819816 12.5739739 5.79819816 12.5739739 4 16 C1.375 16.1875 1.375 16.1875 -1 16 C-1.33 15.34 -1.66 14.68 -2 14 C-2.99 14.495 -2.99 14.495 -4 15 C-5.23151708 11.30544877 -5.72505768 7.83354962 -5 4 C-2.5 1.5 -2.5 1.5 0 0 Z " fill="#FAAB86" transform="translate(70,33)"/>
<path d="M0 0 C2.8520847 1.97452017 3.81895125 3.09475625 4.5 6.5 C3.81895125 9.90524375 2.8520847 11.02547983 0 13 C-3.46230815 13.42519574 -5.8347167 13.63902633 -8.9375 11.9375 C-10.6140629 8.88023824 -10.36528977 6.4093712 -10 3 C-7.7773391 -1.05308751 -4.20075589 -0.5158823 0 0 Z " fill="#FEFEFE" transform="translate(116,222)"/>
<path d="M0 0 C1 4.875 1 4.875 1 6 C-2.3 6.66 -5.6 7.32 -9 8 C-8.67 9.98 -8.34 11.96 -8 14 C-9.32 14.33 -10.64 14.66 -12 15 C-12.81928886 13.75443908 -13.63015186 12.50333365 -14.4375 11.25 C-14.88996094 10.55390625 -15.34242187 9.8578125 -15.80859375 9.140625 C-16.9608009 7.07042986 -17.54676982 5.31303676 -18 3 C-11.86752284 0.17906051 -6.7876721 -1.79673673 0 0 Z " fill="#FCB58D" transform="translate(88,29)"/>
<path d="M0 0 C1.32 0 2.64 0 4 0 C4 2.64 4 5.28 4 8 C6.64 8 9.28 8 12 8 C11.67 8.99 11.34 9.98 11 11 C8.69 11 6.38 11 4 11 C4 13.31 4 15.62 4 18 C2.68 18 1.36 18 0 18 C0 15.69 0 13.38 0 11 C-2.31 11 -4.62 11 -7 11 C-7 9.68 -7 8.36 -7 7 C-4.69 7 -2.38 7 0 7 C0 4.69 0 2.38 0 0 Z " fill="#CCDAEA" transform="translate(283,253)"/>
<path d="M0 0 C0.66 0 1.32 0 2 0 C2.4519779 10.72192025 1.1148557 21.3540176 0 32 C2.91066435 30.89191867 4.09349065 30.38607682 6 28 C7.08835477 23.28846706 7.20793213 18.5711014 7.375 13.75 C7.44332031 12.43257813 7.51164063 11.11515625 7.58203125 9.7578125 C7.74700117 6.50554829 7.88526699 3.25436065 8 0 C8.66 0 9.32 0 10 0 C10.12327902 6.46529996 9.99569255 12.91706641 9.6875 19.375 C9.66502197 20.05240234 9.64254395 20.72980469 9.61938477 21.42773438 C9.38483197 25.72095476 8.62474729 28.57448235 6 32 C3.06028115 33.54335239 1.33156142 34 -2 34 C-1.38330256 22.66326406 -0.72551003 11.33030552 0 0 Z " fill="#3684E1" transform="translate(210,273)"/>
<path d="M0 0 C0.99 0.33 1.98 0.66 3 1 C3 3.31 3 5.62 3 8 C5.31 8 7.62 8 10 8 C10 8.99 10 9.98 10 11 C7.69 11 5.38 11 3 11 C3 13.31 3 15.62 3 18 C1.68 18 0.36 18 -1 18 C-1 15.69 -1 13.38 -1 11 C-3.64 11 -6.28 11 -9 11 C-8.67 10.01 -8.34 9.02 -8 8 C-5.69 8 -3.38 8 -1 8 C-1.020625 6.865625 -1.04125 5.73125 -1.0625 4.5625 C-1 1 -1 1 0 0 Z " fill="#CCDAEA" transform="translate(261,79)"/>
<path d="M0 0 C6.93 0 13.86 0 21 0 C21.33 0.66 21.66 1.32 22 2 C17.14755082 5.10017586 13.67214825 6.14229909 7.9375 6.125 C6.65166016 6.12886719 6.65166016 6.12886719 5.33984375 6.1328125 C3 6 3 6 0 5 C0 3.35 0 1.7 0 0 Z " fill="#2D174B" transform="translate(202,521)"/>
<path d="M0 0 C4.29 0 8.58 0 13 0 C13 2.64 13 5.28 13 8 C8.71 8 4.42 8 0 8 C0 5.36 0 2.72 0 0 Z " fill="#260B42" transform="translate(194,265)"/>
<path d="M0 0 C0.33 0.66 0.66 1.32 1 2 C-4.445 3.98 -4.445 3.98 -10 6 C-12.04217151 16.94020449 -13.03160449 27.92105715 -14 39 C-14.33 39 -14.66 39 -15 39 C-15 28.77 -15 18.54 -15 8 C-15.99 7.67 -16.98 7.34 -18 7 C-16.12616097 6.20558928 -14.25087114 5.41460026 -12.375 4.625 C-10.80878906 3.96371094 -10.80878906 3.96371094 -9.2109375 3.2890625 C-6.17096798 2.06863678 -3.11794095 1.0018609 0 0 Z " fill="#2E7EE0" transform="translate(222,310)"/>
<path d="M0 0 C0 0.66 0 1.32 0 2 C-1.98 2 -3.96 2 -6 2 C-6.33 3.32 -6.66 4.64 -7 6 C-11.62 6 -16.24 6 -21 6 C-21.33 4.35 -21.66 2.7 -22 1 C-14.63959083 0.20274098 -7.40239645 -0.12886183 0 0 Z " fill="#2E1647" transform="translate(222,541)"/>
<path d="M0 0 C6.27 0.33 12.54 0.66 19 1 C19 2.65 19 4.3 19 6 C12.4 6 5.8 6 -1 6 C-0.67 4.02 -0.34 2.04 0 0 Z " fill="#280F42" transform="translate(120,520)"/>
<path d="M0 0 C0.70664795 0.32145996 1.4132959 0.64291992 2.14135742 0.97412109 C5.16568485 2.0594592 7.53659945 2.31133474 10.73828125 2.4140625 C12.33833008 2.47207031 12.33833008 2.47207031 13.97070312 2.53125 C15.07349609 2.5621875 16.17628906 2.593125 17.3125 2.625 C18.99569336 2.68300781 18.99569336 2.68300781 20.71289062 2.7421875 C23.47509852 2.83622011 26.237304 2.92187341 29 3 C28.67 3.99 28.34 4.98 28 6 C24.0833957 6.0580966 20.16690237 6.09362893 16.25 6.125 C15.13882813 6.14175781 14.02765625 6.15851562 12.8828125 6.17578125 C11.27792969 6.18544922 11.27792969 6.18544922 9.640625 6.1953125 C8.65610352 6.20578613 7.67158203 6.21625977 6.65722656 6.22705078 C3.94026889 5.99489618 2.31887487 5.39036273 0 4 C0 2.68 0 1.36 0 0 Z " fill="#301C49" transform="translate(112,541)"/>
<path d="M0 0 C0.72703125 0.42152344 1.4540625 0.84304687 2.203125 1.27734375 C9.57651937 5.29489837 15.60667168 6.97023642 24 7 C24 8.32 24 9.64 24 11 C15.417478 11.54492203 9.22787584 9.74672925 2.4375 4.375 C1.633125 3.59125 0.82875 2.8075 0 2 C0 1.34 0 0.68 0 0 Z " fill="#F47D57" transform="translate(190,146)"/>
<path d="M0 0 C0.6875 1.6875 0.6875 1.6875 1 4 C0.04906703 5.69514137 -0.95107762 7.36368108 -2 9 C-2 9.99 -2 10.98 -2 12 C-0.35 11.67 1.3 11.34 3 11 C2.67 11.99 2.34 12.98 2 14 C-0.0625 14.6875 -0.0625 14.6875 -2 15 C-2 17.64 -2 20.28 -2 23 C-2.66 23 -3.32 23 -4 23 C-4.03738281 22.37351562 -4.07476562 21.74703125 -4.11328125 21.1015625 C-4.17902344 20.28429687 -4.24476563 19.46703125 -4.3125 18.625 C-4.39951172 17.40683594 -4.39951172 17.40683594 -4.48828125 16.1640625 C-4.82990528 13.62078662 -4.82990528 13.62078662 -8 12 C-7.67 10.68 -7.34 9.36 -7 8 C-6.01 8 -5.02 8 -4 8 C-4 7.01 -4 6.02 -4 5 C-6.31 4.67 -8.62 4.34 -11 4 C-10.360625 3.87625 -9.72125 3.7525 -9.0625 3.625 C-8.0415625 3.315625 -8.0415625 3.315625 -7 3 C-6.67 2.34 -6.34 1.68 -6 1 C-5.01 1.99 -4.02 2.98 -3 4 C-2.01 2.68 -1.02 1.36 0 0 Z " fill="#E66B58" transform="translate(316,31)"/>
<path d="M0 0 C2.3125 -0.25 2.3125 -0.25 5 0 C6.8125 2 6.8125 2 8 4 C7.38125 4.04125 6.7625 4.0825 6.125 4.125 C5.42375 4.41375 4.7225 4.7025 4 5 C2.82917122 7.92914165 2.82917122 7.92914165 2 11 C1.34 11.66 0.68 12.32 0 13 C-2.125 12.625 -2.125 12.625 -4 12 C-3.33501617 7.61110675 -1.81242323 4.0188515 0 0 Z " fill="#FDB68F" transform="translate(317,31)"/>
<path d="M0 0 C2.5625 0.1875 2.5625 0.1875 4.5625 2.1875 C4.8125 4.6875 4.8125 4.6875 4.5625 7.1875 C2.5625 9.1875 2.5625 9.1875 0.0625 9.5 C-1.175 9.3453125 -1.175 9.3453125 -2.4375 9.1875 C-4.4375 6.1875 -4.4375 6.1875 -4.125 3.5625 C-3.16420807 0.24340062 -3.16420807 0.24340062 0 0 Z " fill="#DDE8F2" transform="translate(360.4375,315.8125)"/>
<path d="M0 0 C5.56818182 0.56818182 5.56818182 0.56818182 7 2 C7.25 4.4375 7.25 4.4375 7 7 C4 9 4 9 1.375 8.6875 C-1 8 -1 8 -2 7 C-2.1875 4.5625 -2.1875 4.5625 -2 2 C-1.34 1.34 -0.68 0.68 0 0 Z " fill="#DDE8F2" transform="translate(344,316)"/>
<path d="M0 0 C3.0625 0.1875 3.0625 0.1875 5.0625 2.1875 C4.50694444 6.74305556 4.50694444 6.74305556 3.0625 8.1875 C0.0625 8.3125 0.0625 8.3125 -2.9375 8.1875 C-3.9375 7.1875 -3.9375 7.1875 -4.0625 4.1875 C-3.89838889 0.24883333 -3.89838889 0.24883333 0 0 Z " fill="#DDE8F2" transform="translate(331.9375,364.8125)"/>
<path d="M0 0 C0.99 0.33 1.98 0.66 3 1 C3 1.99 3 2.98 3 4 C4.32 4.33 5.64 4.66 7 5 C7 6.32 7 7.64 7 9 C6.01 9.66 5.02 10.32 4 11 C3.42251197 12.96361864 3.42251197 12.96361864 3.3125 15.125 C3.1578125 17.043125 3.1578125 17.043125 3 19 C2.67 19 2.34 19 2 19 C2 16.03 2 13.06 2 10 C-2.20180184 10.5739739 -2.20180184 10.5739739 -4 14 C-6.625 14.1875 -6.625 14.1875 -9 14 C-8.67 13.34 -8.34 12.68 -8 12 C-7.01 12 -6.02 12 -5 12 C-4.505 11.34 -4.01 10.68 -3.5 10 C-3.005 9.34 -2.51 8.68 -2 8 C-1.01 8 -0.02 8 1 8 C0.67 5.36 0.34 2.72 0 0 Z " fill="#E1594B" transform="translate(78,35)"/>
<path d="M0 0 C3.29714793 0.32971479 4.6226839 0.6226839 7 3 C6.63318342 5.93453261 6.13562754 6.86437246 4 9 C-0.55555556 8.44444444 -0.55555556 8.44444444 -2 7 C-2.1875 4.5625 -2.1875 4.5625 -2 2 C-1.34 1.34 -0.68 0.68 0 0 Z " fill="#DDE8F3" transform="translate(330,316)"/>
<path d="M0 0 C3.0625 0.1875 3.0625 0.1875 5.0625 2.1875 C4.50694444 6.74305556 4.50694444 6.74305556 3.0625 8.1875 C0.0625 8.3125 0.0625 8.3125 -2.9375 8.1875 C-3.9375 7.1875 -3.9375 7.1875 -4.0625 4.1875 C-3.89838889 0.24883333 -3.89838889 0.24883333 0 0 Z " fill="#DDE8F2" transform="translate(331.9375,267.8125)"/>
<path d="M0 0 C0 1.65 0 3.3 0 5 C-2.55723229 6.27861615 -4.36737102 6.11336609 -7.2265625 6.09765625 C-8.2578125 6.09443359 -9.2890625 6.09121094 -10.3515625 6.08789062 C-11.97191406 6.07532227 -11.97191406 6.07532227 -13.625 6.0625 C-15.25695312 6.05573242 -15.25695312 6.05573242 -16.921875 6.04882812 C-19.61463789 6.03701776 -22.30729188 6.02054778 -25 6 C-25 5.34 -25 4.68 -25 4 C-15.1 3.505 -15.1 3.505 -5 3 C-4.67 2.34 -4.34 1.68 -4 1 C-1 0 -1 0 0 0 Z " fill="#402F55" transform="translate(255,541)"/>
<path d="M0 0 C3 0.125 3 0.125 4 1.125 C4.1875 3.5625 4.1875 3.5625 4 6.125 C2 8.125 2 8.125 -0.5 8.375 C-3 8.125 -3 8.125 -5 6.125 C-4.27477017 0.17811542 -4.27477017 0.17811542 0 0 Z " fill="#DEE9F3" transform="translate(361,267.875)"/>
<path d="M0 0 C3.0625 0.1875 3.0625 0.1875 5.0625 2.1875 C4.50694444 6.74305556 4.50694444 6.74305556 3.0625 8.1875 C0.625 8.375 0.625 8.375 -1.9375 8.1875 C-3.9375 6.1875 -3.9375 6.1875 -4.125 3.625 C-3.8509967 0.06295712 -3.62735131 0.23153306 0 0 Z " fill="#DDE8F3" transform="translate(345.9375,267.8125)"/>
<path d="M0 0 C2.5625 0.1875 2.5625 0.1875 4.5625 2.1875 C4.00694444 6.74305556 4.00694444 6.74305556 2.5625 8.1875 C0.125 8.375 0.125 8.375 -2.4375 8.1875 C-3.0975 7.5275 -3.7575 6.8675 -4.4375 6.1875 C-3.71780303 0.28598485 -3.71780303 0.28598485 0 0 Z " fill="#DEE9F3" transform="translate(360.4375,364.8125)"/>
<path d="M0 0 C2.5625 0.1875 2.5625 0.1875 4.5625 2.1875 C4.00694444 6.74305556 4.00694444 6.74305556 2.5625 8.1875 C0.125 8.375 0.125 8.375 -2.4375 8.1875 C-3.0975 7.5275 -3.7575 6.8675 -4.4375 6.1875 C-3.71780303 0.28598485 -3.71780303 0.28598485 0 0 Z " fill="#DEE9F3" transform="translate(346.4375,364.8125)"/>
<path d="M0 0 C6.27 0 12.54 0 19 0 C19 2.64 19 5.28 19 8 C18.67 8 18.34 8 18 8 C18 5.69 18 3.38 18 1 C13.38 1 8.76 1 4 1 C4 3.64 4 6.28 4 9 C2.68 9 1.36 9 0 9 C0 6.03 0 3.06 0 0 Z " fill="#B4C4D7" transform="translate(189,264)"/>
<path d="M0 0 C2.64 0 5.28 0 8 0 C8 2.64 8 5.28 8 8 C5.36 8 2.72 8 0 8 C0 5.36 0 2.72 0 0 Z " fill="#260D42" transform="translate(224,265)"/>
<path d="M0 0 C0 1.65 0 3.3 0 5 C-1.76813112 5.24915939 -3.53974982 5.47366632 -5.3125 5.6875 C-6.29863281 5.81511719 -7.28476563 5.94273437 -8.30078125 6.07421875 C-11 6 -11 6 -12.85546875 4.51953125 C-13.23316406 4.01808594 -13.61085937 3.51664063 -14 3 C-13.67 2.34 -13.34 1.68 -13 1 C-11.906875 1.020625 -10.81375 1.04125 -9.6875 1.0625 C-6.20022781 1.00339369 -3.44821853 0 0 0 Z " fill="#5E0A38" transform="translate(215,136)"/>
<path d="M0 0 C0 2.97 0 5.94 0 9 C-1.98 9 -3.96 9 -6 9 C-6 6.36 -6 3.72 -6 1 C-3 0 -3 0 0 0 Z " fill="#2C1749" transform="translate(243,263)"/>
<path d="M0 0 C1 4.875 1 4.875 1 6 C-1.64 6.33 -4.28 6.66 -7 7 C-6.67 5.35 -6.34 3.7 -6 2 C-7.32 1.34 -8.64 0.68 -10 0 C-6.30458414 -0.95024979 -3.69541586 -0.95024979 0 0 Z " fill="#F69D7B" transform="translate(88,29)"/>
<path d="M0 0 C-0.47202486 4.24822374 -2.96655518 6.19989709 -6 9 C-6.99 8.67 -7.98 8.34 -9 8 C-7.13554727 3.64961029 -5.02378599 0 0 0 Z " fill="#C9D8E8" transform="translate(390,215)"/>
<path d="M0 0 C3.36295835 1.44126786 5.62927102 3.20592655 8 6 C8 6.99 8 7.98 8 9 C3.75177626 8.52797514 1.80010291 6.03344482 -1 3 C-0.67 2.01 -0.34 1.02 0 0 Z " fill="#CAD9E9" transform="translate(382,204)"/>
<path d="M0 0 C3.36591866 1.44253657 5.51047079 3.33264727 8 6 C7.67 6.99 7.34 7.98 7 9 C3.63408134 7.55746343 1.48952921 5.66735273 -1 3 C-0.67 2.01 -0.34 1.02 0 0 Z " fill="#CAD8E8" transform="translate(393,215)"/>
<path d="M0 0 C0.99 0.33 1.98 0.66 3 1 C1.55746343 4.36591866 -0.33264727 6.51047079 -3 9 C-3.99 8.67 -4.98 8.34 -6 8 C-4.55746343 4.63408134 -2.66735273 2.48952921 0 0 Z " fill="#C9D8E8" transform="translate(398,204)"/>
<path d="M0 0 C1.32 0 2.64 0 4 0 C4 2.97 4 5.94 4 9 C2.68 9 1.36 9 0 9 C0 6.03 0 3.06 0 0 Z " fill="#A5BCD3" transform="translate(232,264)"/>
<path d="M0 0 C0.66 0 1.32 0 2 0 C2 0.99 2 1.98 2 3 C5.62885324 3.15149298 5.62885324 3.15149298 9 2 C8.67 2.99 8.34 3.98 8 5 C5.9375 5.6875 5.9375 5.6875 4 6 C4 8.64 4 11.28 4 14 C3.34 14 2.68 14 2 14 C1.93941406 13.40832031 1.87882812 12.81664062 1.81640625 12.20703125 C1.37987629 8.09021792 0.91328654 4.04455467 0 0 Z " fill="#E97761" transform="translate(310,40)"/>
<path d="M0 0 C3.78520613 0.54074373 5.59177555 2.07572746 8 5 C8 5.99 8 6.98 8 8 C4.21479387 7.45925627 2.40822445 5.92427254 0 3 C0 2.01 0 1.02 0 0 Z " fill="#C8D8E8" transform="translate(118,292)"/>
<path d="M0 0 C-0.54074373 3.78520613 -2.07572746 5.59177555 -5 8 C-5.99 8 -6.98 8 -8 8 C-7.32253522 3.25774652 -4.9532836 0 0 0 Z " fill="#C8D7E8" transform="translate(115,292)"/>
<path d="M0 0 C-0.54074373 3.78520613 -2.07572746 5.59177555 -5 8 C-5.99 8 -6.98 8 -8 8 C-7.32253522 3.25774652 -4.9532836 0 0 0 Z " fill="#C9D8E9" transform="translate(126,281)"/>
<path d="M0 0 C3.78520613 0.54074373 5.59177555 2.07572746 8 5 C8 5.99 8 6.98 8 8 C4.21479387 7.45925627 2.40822445 5.92427254 0 3 C0 2.01 0 1.02 0 0 Z " fill="#C9D8E9" transform="translate(107,281)"/>
<path d="M0 0 C2.97 0.33 5.94 0.66 9 1 C8.67 2.32 8.34 3.64 8 5 C4.7 4.34 1.4 3.68 -2 3 C-1.34 2.67 -0.68 2.34 0 2 C0 1.34 0 0.68 0 0 Z " fill="#311D4C" transform="translate(222,541)"/>
<path d="M0 0 C0 0.66 0 1.32 0 2 C-1.71024476 3.60861731 -3.49438829 5.13938343 -5.3125 6.625 C-6.29863281 7.44226563 -7.28476563 8.25953125 -8.30078125 9.1015625 C-11 11 -11 11 -14 11 C-12.04709472 9.16056628 -10.08818082 7.32840869 -8.125 5.5 C-7.29162109 4.71302734 -7.29162109 4.71302734 -6.44140625 3.91015625 C-2.2265625 0 -2.2265625 0 0 0 Z " fill="#2F80DF" transform="translate(234,401)"/>
<path d="M0 0 C0.33 0.66 0.66 1.32 1 2 C-3.96993194 4.43425238 -7.34605369 5.34615998 -13 5 C-13 4.34 -13 3.68 -13 3 C-10.36 3 -7.72 3 -5 3 C-5 2.34 -5 1.68 -5 1 C-3.35 0.67 -1.7 0.34 0 0 Z " fill="#E9D1C9" transform="translate(215,133)"/>
<path d="M0 0 C-0.33 0.99 -0.66 1.98 -1 3 C-3.31 3.33 -5.62 3.66 -8 4 C-7.625 2.0625 -7.625 2.0625 -7 0 C-4.3333581 -1.33332095 -2.83319697 -0.67102033 0 0 Z " fill="#FBAD88" transform="translate(312,29)"/>
<path d="M0 0 C-0.33 0.99 -0.66 1.98 -1 3 C-5.455 3.495 -5.455 3.495 -10 4 C-9.67 3.01 -9.34 2.02 -9 1 C-5.8035914 -0.06546953 -3.34252724 -0.07427838 0 0 Z " fill="#491C3C" transform="translate(202,110)"/>
<path d="M0 0 C0.99 0.33 1.98 0.66 3 1 C3 1.99 3 2.98 3 4 C3.99 4 4.98 4 6 4 C6 5.32 6 6.64 6 8 C5.01 8.33 4.02 8.66 3 9 C0 3.375 0 3.375 0 0 Z " fill="#EC8268" transform="translate(78,35)"/>
<path d="M0 0 C2.31 0.33 4.62 0.66 7 1 C6.01 2.485 6.01 2.485 5 4 C5 4.99 5 5.98 5 7 C3.0625 6.3125 3.0625 6.3125 1 5 C0.25 2.375 0.25 2.375 0 0 Z " fill="#ED9F7B" transform="translate(176,121)"/>
<path d="M0 0 C0 0.99 0 1.98 0 3 C-2.97 3 -5.94 3 -9 3 C-9 2.34 -9 1.68 -9 1 C-6.04335481 -0.4783226 -3.25770263 -0.06032783 0 0 Z " fill="#572A42" transform="translate(221,107)"/>
<path d="M0 0 C2.64 0.99 5.28 1.98 8 3 C8 3.66 8 4.32 8 5 C2.25 5.125 2.25 5.125 0 4 C0 2.68 0 1.36 0 0 Z " fill="#2A1444" transform="translate(112,541)"/>
<path d="M0 0 C0.66 0.33 1.32 0.66 2 1 C1.67 4.63 1.34 8.26 1 12 C-1.23551759 8.64672361 -1.17283528 8.09256343 -0.625 4.3125 C-0.51414062 3.50425781 -0.40328125 2.69601563 -0.2890625 1.86328125 C-0.19367188 1.24839844 -0.09828125 0.63351563 0 0 Z " fill="#FEBF9B" transform="translate(327,37)"/>
<path d="M0 0 C0 1.65 0 3.3 0 5 C-1.65 4.67 -3.3 4.34 -5 4 C-5.33 3.01 -5.66 2.02 -6 1 C-3 0 -3 0 0 0 Z " fill="#671841" transform="translate(215,136)"/>
<path d="M0 0 C1.32 0.33 2.64 0.66 4 1 C3.34 1 2.68 1 2 1 C2 1.99 2 2.98 2 4 C0.02 4.33 -1.96 4.66 -4 5 C-2.68 3.35 -1.36 1.7 0 0 Z " fill="#752E48" transform="translate(198,117)"/>
</svg>
